<?xml version="1.0" encoding="UTF-8"?>
<svg width="29px" height="68px" viewBox="0 0 29 68" version="1.1" xmlns="http://www.w3.org/2000/svg" xmlns:xlink="http://www.w3.org/1999/xlink">
    <!-- Generator: Sketch 52.2 (67145) - http://www.bohemiancoding.com/sketch -->
    <title>Scroll Down</title>
    <desc>Created with Sketch.</desc>
    <defs>
        <polygon id="path-1" points="0.00058 0.1475 28.072 0.1475 28.072 52.5944214 0.00058 52.5944214"></polygon>
    </defs>
    <g id="Desktop-Ver2.0" stroke="none" stroke-width="1" fill="none" fill-rule="evenodd">
        <g id="03_Designer_Detail" transform="translate(-706.000000, -792.000000)">
            <g id="Main-Content" transform="translate(231.000000, 279.000000)">
                <g id="Scroll-Down" transform="translate(475.000000, 513.000000)">
                    <g id="Group-3">
                        <mask id="mask-2" fill="white">
                            <use xlink:href="#path-1"></use>
                        </mask>
                        <g id="Clip-2"></g>
                        <path d="M14.03658,2.07549286 C7.36271333,2.07549286 1.93391333,7.49285 1.93391333,14.14835 L1.93391333,38.5929929 C1.93391333,45.2504214 7.36271333,50.66585 14.03658,50.66585 C20.7104467,50.66585 26.1392467,45.2504214 26.1392467,38.5929929 L26.1392467,14.14835 C26.1392467,7.49285 20.7104467,2.07549286 14.03658,2.07549286 M14.03658,52.5944214 C6.29744667,52.5944214 0.00058,46.3130643 0.00058,38.5929929 L0.00058,14.14835 C0.00058,6.42827857 6.29744667,0.146921429 14.03658,0.146921429 C21.7757133,0.146921429 28.07258,6.42827857 28.07258,14.14835 L28.07258,38.5929929 C28.07258,46.3130643 21.7757133,52.5944214 14.03658,52.5944214" id="Fill-1" fill="#FEFEFE" mask="url(#mask-2)"></path>
                    </g>
                    <path d="M14.5,11.907735 C12.5197711,11.907735 10.907735,13.5197711 10.907735,15.5 C10.907735,17.4802289 12.5197711,19.092265 14.5,19.092265 C16.4802289,19.092265 18.092265,17.4802289 18.092265,15.5 C18.092265,13.5197711 16.4802289,11.907735 14.5,11.907735 M14.5,21 C11.4686091,21 9,18.5332986 9,15.5 C9,12.4667014 11.4686091,10 14.5,10 C17.5313909,10 20,12.4667014 20,15.5 C20,18.5332986 17.5313909,21 14.5,21" id="Fill-4" fill="#FEFEFE"></path>
                    <polygon id="Fill-6" fill="#FEFEFE" points="14 68 2 56.3279873 3.3655239 55 14 65.3440254 24.6344761 55 26 56.3279873"></polygon>
                </g>
            </g>
        </g>
    </g>
</svg>