<?xml version="1.0" encoding="UTF-8"?>
<svg width="74px" height="62px" viewBox="0 0 74 62" version="1.1" xmlns="http://www.w3.org/2000/svg" xmlns:xlink="http://www.w3.org/1999/xlink">
    <!-- Generator: Sketch 52.2 (67145) - http://www.bohemiancoding.com/sketch -->
    <title>Group 10</title>
    <desc>Created with Sketch.</desc>
    <defs>
        <filter x="-14.0%" y="-8.7%" width="128.1%" height="117.3%" filterUnits="objectBoundingBox" id="filter-1">
            <feOffset dx="0" dy="10" in="SourceAlpha" result="shadowOffsetOuter1"></feOffset>
            <feGaussianBlur stdDeviation="5" in="shadowOffsetOuter1" result="shadowBlurOuter1"></feGaussianBlur>
            <feColorMatrix values="0 0 0 0 0.641559103   0 0 0 0 0.641559103   0 0 0 0 0.641559103  0 0 0 0.5 0" type="matrix" in="shadowBlurOuter1" result="shadowMatrixOuter1"></feColorMatrix>
            <feMerge>
                <feMergeNode in="shadowMatrixOuter1"></feMergeNode>
                <feMergeNode in="SourceGraphic"></feMergeNode>
            </feMerge>
        </filter>
        <polygon id="path-2" points="0.7416 0.1625 42.6746 0.1625 42.6746 27 0.7416 27"></polygon>
        <polygon id="path-4" points="0 41.9331 53.675 41.9331 53.675 0.0001 0 0.0001"></polygon>
    </defs>
    <g id="Desktop-Ver2.0" stroke="none" stroke-width="1" fill="none" fill-rule="evenodd">
        <g id="01_Home_Landing" transform="translate(-140.000000, -3423.000000)">
            <g id="Our-Services" transform="translate(131.000000, 3039.000000)">
                <g id="Card-1" filter="url(#filter-1)" transform="translate(0.000000, 165.000000)">
                    <g id="Group-10" transform="translate(19.000000, 219.000000)">
                        <g id="Group-3" transform="translate(11.000000, 14.933100)">
                            <mask id="mask-3" fill="white">
                                <use xlink:href="#path-2"></use>
                            </mask>
                            <g id="Clip-2"></g>
                            <path d="M40.9976,17.7745 L2.4186,17.7745 L2.4186,14.5265 C2.4196,13.5425 3.2186,12.7435 4.2036,12.7425 L39.2136,12.7425 C40.1986,12.7435 40.9966,13.5425 40.9976,14.5265 L40.9976,17.7745 Z M39.2136,20.2915 L4.2036,20.2915 C3.5886,20.2905 3.0186,19.9735 2.6936,19.4525 L40.7206,19.4525 C40.3966,19.9725 39.8276,20.2905 39.2136,20.2915 Z M37.6436,25.3225 L38.4816,25.3225 L38.4816,21.9685 L37.6436,21.9685 L37.6436,25.3225 Z M4.9356,25.3225 L5.7736,25.3225 L5.7736,21.9685 L4.9356,21.9685 L4.9356,25.3225 Z M6.6126,4.3555 C6.6126,2.9665 7.7386,1.8395 9.1286,1.8395 L18.3536,1.8395 C19.7436,1.8395 20.8696,2.9665 20.8696,4.3555 L20.8696,11.0655 L6.6126,11.0655 L6.6126,4.3555 Z M22.5466,4.3555 C22.5466,2.9665 23.6736,1.8395 25.0626,1.8395 L34.2886,1.8395 C35.6776,1.8395 36.8046,2.9665 36.8046,4.3555 L36.8046,11.0655 L22.5466,11.0655 L22.5466,4.3555 Z M39.2136,11.0655 L38.4816,11.0655 L38.4816,4.3555 C38.4786,2.0415 36.6026,0.1665 34.2886,0.1625 L25.0626,0.1625 C23.7376,0.1665 22.4936,0.7985 21.7086,1.8665 C20.9236,0.7985 19.6786,0.1665 18.3536,0.1625 L9.1286,0.1625 C6.8136,0.1665 4.9376,2.0415 4.9346,4.3555 L4.9346,11.0655 L4.2036,11.0655 C2.2916,11.0675 0.7446,12.6165 0.7416,14.5265 L0.7416,18.5065 C0.7476,20.0485 1.7736,21.4015 3.2576,21.8205 L3.2576,26.1615 C3.2576,26.6245 3.6336,27.0005 4.0966,27.0005 L6.6126,27.0005 C7.0756,27.0005 7.4506,26.6245 7.4506,26.1615 L7.4506,21.9675 L35.9656,21.9675 L35.9656,26.1615 C35.9656,26.6245 36.3406,27.0005 36.8046,27.0005 L39.3196,27.0005 C39.7836,27.0005 40.1586,26.6245 40.1586,26.1615 L40.1586,21.8205 C41.6436,21.4015 42.6696,20.0485 42.6746,18.5065 L42.6746,14.5265 C42.6726,12.6165 41.1246,11.0675 39.2136,11.0655 Z" id="Fill-1" fill="#C97859" mask="url(#mask-3)"></path>
                        </g>
                        <path d="M24.3218,22.6441 C23.8588,22.6441 23.4828,22.2681 23.4828,21.8051 C23.4828,21.3421 23.8588,20.9661 24.3218,20.9661 C24.7848,20.9661 25.1598,21.3421 25.1598,21.8051 C25.1598,22.2681 24.7848,22.6441 24.3218,22.6441 M24.3218,19.2891 C22.9318,19.2891 21.8058,20.4151 21.8058,21.8051 C21.8058,23.1951 22.9318,24.3221 24.3218,24.3221 C25.7118,24.3221 26.8378,23.1951 26.8378,21.8051 C26.8378,20.4151 25.7118,19.2891 24.3218,19.2891" id="Fill-4" fill="#C97859"></path>
                        <path d="M41.0948,22.6441 C40.6318,22.6441 40.2568,22.2681 40.2568,21.8051 C40.2568,21.3421 40.6318,20.9661 41.0948,20.9661 C41.5578,20.9661 41.9328,21.3421 41.9328,21.8051 C41.9328,22.2681 41.5578,22.6441 41.0948,22.6441 M41.0948,19.2891 C39.7048,19.2891 38.5788,20.4151 38.5788,21.8051 C38.5788,23.1951 39.7048,24.3221 41.0948,24.3221 C42.4848,24.3221 43.6108,23.1951 43.6108,21.8051 C43.6108,20.4151 42.4848,19.2891 41.0948,19.2891" id="Fill-6" fill="#C97859"></path>
                        <mask id="mask-5" fill="white">
                            <use xlink:href="#path-4"></use>
                        </mask>
                        <g id="Clip-9"></g>
                        <path d="M3.355,40.2551 L10.903,40.2551 L10.903,39.4171 L3.355,39.4171 L3.355,40.2551 Z M6.71,37.7401 L7.548,37.7401 L7.548,13.4191 L6.71,13.4191 L6.71,37.7401 Z M1.877,11.7421 L4.033,1.6771 L10.225,1.6771 L12.381,11.7421 L1.877,11.7421 Z M11.742,37.7401 L9.226,37.7401 L9.226,13.4181 L13.419,13.4181 C13.882,13.4181 14.258,13.0431 14.258,12.5801 C14.258,12.5211 14.251,12.4621 14.239,12.4051 L11.723,0.6641 C11.64,0.2771 11.299,-0.0009 10.903,-0.0009 L3.355,-0.0009 C2.96,-0.0009 2.618,0.2771 2.535,0.6641 L0.019,12.4051 C-0.078,12.8581 0.21,13.3031 0.664,13.4001 C0.722,13.4131 0.78,13.4181 0.839,13.4181 L5.032,13.4181 L5.032,37.7401 L2.517,37.7401 C2.053,37.7401 1.678,38.1161 1.678,38.5791 L1.678,41.0941 C1.678,41.5571 2.053,41.9331 2.517,41.9331 L11.742,41.9331 C12.205,41.9331 12.58,41.5571 12.58,41.0941 L12.58,38.5791 C12.58,38.1161 12.205,37.7401 11.742,37.7401 Z" id="Fill-8" fill="#C97859" mask="url(#mask-5)"></path>
                    </g>
                </g>
            </g>
        </g>
    </g>
</svg>