<?xml version="1.0" encoding="UTF-8"?>
<svg width="17px" height="18px" viewBox="0 0 17 18" version="1.1" xmlns="http://www.w3.org/2000/svg" xmlns:xlink="http://www.w3.org/1999/xlink">
    <!-- Generator: Sketch 52.2 (67145) - http://www.bohemiancoding.com/sketch -->
    <title>Close</title>
    <desc>Created with Sketch.</desc>
    <g id="Desktop-Ver2.0" stroke="none" stroke-width="1" fill="none" fill-rule="evenodd">
        <g id="01_Home_Menu-(Active/Hover)" transform="translate(-1292.000000, -44.000000)" fill="#58585A">
            <path d="M1301.73695,53.012492 L1308.7241,45.6470418 C1309.05907,45.2951825 1309.05907,44.7267943 1308.7241,44.3763229 C1308.38982,44.0244636 1307.84706,44.0244636 1307.51348,44.3763229 L1300.53258,51.7355272 L1293.48705,44.2659765 C1293.15277,43.9113412 1292.61,43.9113412 1292.27642,44.2659765 C1291.94145,44.6219999 1291.94145,45.1987161 1292.27642,45.5533515 L1299.31639,53.0173501 L1292.25071,60.4653866 C1291.91643,60.816552 1291.91643,61.3856341 1292.25071,61.7361055 C1292.58429,62.0879648 1293.12706,62.0879648 1293.46133,61.7361055 L1300.52146,54.295009 L1307.53849,61.7333295 C1307.87277,62.0886588 1308.41484,62.0886588 1308.74981,61.7333295 C1309.0834,61.3780001 1309.0834,60.8019779 1308.74981,60.4466485 L1301.73695,53.012492 Z" id="Close"></path>
        </g>
    </g>
</svg>