<svg id="Symbols" xmlns="http://www.w3.org/2000/svg" width="48" height="48" viewBox="0 0 48 48">
  <g id="Instagram_Black" data-name="Instagram/Black">
    <g id="Instagram">
      <path id="Path_2133" data-name="Path 2133" d="M24,0c6.518,0,7.335.028,9.9.144A17.613,17.613,0,0,1,39.721,1.26a11.765,11.765,0,0,1,4.251,2.768A11.767,11.767,0,0,1,46.74,8.279,17.616,17.616,0,0,1,47.856,14.1c.117,2.56.144,3.377.144,9.9s-.028,7.335-.144,9.9a17.616,17.616,0,0,1-1.115,5.826,12.272,12.272,0,0,1-7.019,7.019A17.616,17.616,0,0,1,33.9,47.856c-2.56.117-3.377.144-9.9.144s-7.335-.028-9.9-.144A17.616,17.616,0,0,1,8.279,46.74a11.767,11.767,0,0,1-4.251-2.768A11.765,11.765,0,0,1,1.26,39.721,17.613,17.613,0,0,1,.144,33.9C.028,31.335,0,30.518,0,24s.028-7.335.144-9.9A17.613,17.613,0,0,1,1.26,8.279,11.764,11.764,0,0,1,4.028,4.028,11.764,11.764,0,0,1,8.279,1.26,17.613,17.613,0,0,1,14.1.144C16.665.028,17.482,0,24,0Zm0,4.324c-6.408,0-7.167.024-9.7.14a13.278,13.278,0,0,0-4.456.826,7.435,7.435,0,0,0-2.76,1.8,7.435,7.435,0,0,0-1.8,2.76A13.278,13.278,0,0,0,4.464,14.3c-.115,2.531-.14,3.29-.14,9.7s.024,7.167.14,9.7a13.278,13.278,0,0,0,.826,4.456,7.436,7.436,0,0,0,1.8,2.76,7.436,7.436,0,0,0,2.76,1.8,13.278,13.278,0,0,0,4.456.826c2.53.115,3.289.14,9.7.14s7.168-.025,9.7-.14a13.278,13.278,0,0,0,4.456-.826,7.948,7.948,0,0,0,4.555-4.555,13.278,13.278,0,0,0,.826-4.456c.115-2.531.14-3.29.14-9.7s-.025-7.167-.14-9.7a13.278,13.278,0,0,0-.826-4.456,7.436,7.436,0,0,0-1.8-2.76,7.435,7.435,0,0,0-2.76-1.8A13.278,13.278,0,0,0,33.7,4.464C31.167,4.349,30.408,4.324,24,4.324Zm0,7.351A12.324,12.324,0,1,1,11.676,24,12.324,12.324,0,0,1,24,11.676ZM24,32a8,8,0,1,0-8-8A8,8,0,0,0,24,32ZM39.691,11.189a2.88,2.88,0,1,1-2.88-2.88A2.88,2.88,0,0,1,39.691,11.189Z" fill="#58585a" fill-rule="evenodd"/>
    </g>
  </g>
</svg>
