<?xml version="1.0" encoding="UTF-8"?>
<svg width="55px" height="48px" viewBox="0 0 55 48" version="1.1" xmlns="http://www.w3.org/2000/svg" xmlns:xlink="http://www.w3.org/1999/xlink">
    <!-- Generator: Sketch 52.2 (67145) - http://www.bohemiancoding.com/sketch -->
    <title>Group 6</title>
    <desc>Created with Sketch.</desc>
    <defs>
        <polygon id="path-1" points="0 0.00765 54.8395833 0.00765 54.8395833 48 0 48"></polygon>
    </defs>
    <g id="Desktop-Ver2.0" stroke="none" stroke-width="1" fill="none" fill-rule="evenodd">
        <g id="05_Our-Services_Landing" transform="translate(-131.000000, -1691.000000)">
            <g id="Lighting" transform="translate(131.000000, 1689.000000)">
                <g id="Group-6" transform="translate(0.000000, 2.000000)">
                    <path d="M34.0118183,39.5794778 L37.2411911,27.789235 L49.4225307,27.789235 L52.0990324,39.5794778 L34.0118183,39.5794778 Z M16.0578992,4.21026109 L15.4247482,1.6856162 L38.5756552,1.6856162 L37.9425042,4.21026109 L16.0578992,4.21026109 Z M1.89985626,39.5794778 L4.576358,27.789235 L16.7576976,27.789235 L19.9870704,39.5794778 L1.89985626,39.5794778 Z M53.978794,40.2355831 L50.920584,26.7612359 C50.8327305,26.3787597 50.4904049,26.1051305 50.0980937,26.1051305 L36.5974372,26.1051305 C36.2172436,26.1051305 35.8840063,26.3591068 35.7825204,26.7249535 L32.0911595,40.197789 C31.9684675,40.6467828 32.2335427,41.1108941 32.6834131,41.233347 C32.7546047,41.2529999 32.8303405,41.2620705 32.9060762,41.2620705 L42.4669585,41.2620705 C42.1412948,44.1389563 39.7071474,46.3113603 36.8079826,46.3158956 L33.5392272,46.3158956 C30.3946784,46.3113603 27.8469275,43.7685742 27.8438981,40.6316651 L27.8438981,5.8958773 L38.6014054,5.8958773 C38.9876577,5.8958773 39.3254392,5.6313187 39.4193516,5.25791314 L40.4751081,1.04765204 C40.587197,0.595634783 40.3115188,0.13757047 39.8601337,0.025699978 C39.7934862,0.00907058045 39.7238093,0 39.6556471,0 L14.3432416,0 C13.878224,0 13.4995452,0.377940852 13.4995452,0.843563982 C13.4995452,0.911593336 13.5086335,0.979622689 13.5252954,1.04765204 L14.5795371,5.25791314 C14.6734495,5.6313187 15.011231,5.8958773 15.3974833,5.8958773 L26.1565053,5.8958773 L26.1565053,40.6316651 C26.1534759,43.7685742 23.6042102,46.3113603 20.4611762,46.3158956 L17.1924208,46.3158956 C14.2917412,46.3113603 11.8591086,44.1389563 11.5334449,41.2620705 L21.0943272,41.2620705 C21.5593447,41.2635822 21.9380235,40.8856414 21.9380235,40.42153 C21.9380235,40.3459419 21.9274205,40.2718655 21.9077292,40.197789 L18.2163683,26.7249535 C18.1163971,26.3591068 17.7831598,26.1051305 17.4029662,26.1051305 L3.90230974,26.1051305 C3.50848379,26.1051305 3.16615816,26.3787597 3.07981939,26.7612359 L0.0216094179,40.2355831 C-0.0829059304,40.6876004 0.201860526,41.1396176 0.656275083,41.2424176 C0.718378406,41.2560234 0.781996444,41.2620705 0.844099767,41.2620705 L9.83999329,41.2620705 C10.1717159,45.0702025 13.3632208,47.9939529 17.1924208,48 L20.4611762,48 C23.2088696,47.9969765 25.7278409,46.473119 27.0002017,44.0422034 C28.2725625,46.473119 30.7915338,47.9969765 33.5392272,48 L36.8079826,48 C40.6371826,47.9939529 43.8271728,45.0702025 44.1588954,41.2620705 L53.1563036,41.2620705 C53.6213212,41.2635822 54,40.8856414 54,40.42153 C54,40.3595477 53.9924264,40.2960537 53.978794,40.2355831 Z" id="Fill-1" fill="#C97859"></path>
                    <g id="Group-5">
                        <mask id="mask-2" fill="white">
                            <use xlink:href="#path-1"></use>
                        </mask>
                        <g id="Clip-4"></g>
                        <path d="M16.5290278,4.18515 L38.3105556,4.18515 L38.8559722,2.04465 L15.9836111,2.04465 L16.5290278,4.18515 Z M38.6023611,4.55115 L16.2372222,4.55115 L15.5054167,1.67865 L39.3341667,1.67865 L38.6023611,4.55115 Z M2.3375,39.27915 L20.1025,39.27915 L16.9461111,27.94665 L4.95152778,27.94665 L2.3375,39.27915 Z M20.5929167,39.64515 L1.87,39.64515 L4.65513889,27.58065 L17.2318056,27.58065 L20.5929167,39.64515 Z M34.7370833,39.27915 L52.5020833,39.27915 L49.8865278,27.94665 L37.8934722,27.94665 L34.7370833,39.27915 Z M52.9695833,39.64515 L34.2481944,39.64515 L37.6077778,27.58065 L50.1859722,27.58065 L52.9695833,39.64515 Z M27.4190278,43.49265 L27.5855556,43.80465 C28.8398611,46.16265 31.3041667,47.63115 34.0159722,47.63415 L37.3129167,47.63415 C41.1048611,47.62815 44.2138889,44.82615 44.5408333,41.11665 L44.5561111,40.94865 L53.8006944,40.94865 C53.9794444,40.94865 54.1459722,40.88115 54.27125,40.75815 C54.3965278,40.63515 54.4668056,40.47015 54.4668056,40.29615 C54.4668056,40.24665 54.4606944,40.19865 54.45,40.15365 L51.3654167,26.78265 C51.2966667,26.48865 51.0247222,26.27565 50.7161111,26.27565 L37.1005556,26.27565 C36.8026389,26.27565 36.5383333,26.47215 36.4588889,26.75565 L32.7356944,40.12365 C32.6898611,40.29165 32.71125,40.46715 32.7998611,40.61865 C32.8869444,40.77165 33.0290278,40.87965 33.2016667,40.92465 C33.2581944,40.94115 33.31625,40.94865 33.3773611,40.94865 L43.2284722,40.94865 L43.2055556,41.15265 C42.8663889,44.09865 40.3348611,46.32465 37.3129167,46.32915 L34.0144444,46.32915 C30.7480556,46.32465 28.0881944,43.71315 28.0836111,40.50615 L28.0836111,5.85615 L39.1218056,5.85615 C39.4258333,5.85615 39.6916667,5.65365 39.765,5.36115 L40.8298611,1.18365 C40.9184722,0.83565 40.7015278,0.48015 40.3455556,0.39465 C40.2936111,0.38115 40.2401389,0.37365 40.1851389,0.37365 L14.6544444,0.37365 C14.2877778,0.37365 13.9898611,0.66615 13.9898611,1.02765 C13.9898611,1.07865 13.9975,1.13115 14.01125,1.18515 L15.0745833,5.36115 C15.1479167,5.65365 15.41375,5.85615 15.7177778,5.85615 L26.7559722,5.85615 L26.7559722,40.50615 C26.7513889,43.71315 24.0915278,46.32465 20.8251389,46.32915 L17.5266667,46.32915 C14.50625,46.32465 11.9731944,44.09865 11.6340278,41.15265 L11.6111111,40.94865 L21.4622222,40.94865 C21.8288889,40.94865 22.1268056,40.65615 22.1283333,40.29615 C22.1283333,40.23915 22.1191667,40.18065 22.1038889,40.12215 L18.3806944,26.75565 C18.3027778,26.47215 18.0384722,26.27565 17.7390278,26.27565 L4.12347222,26.27565 C3.81027778,26.27565 3.54444444,26.48415 3.47569444,26.78265 L0.389583333,40.15365 C0.351388889,40.32315 0.381944444,40.49715 0.476666667,40.64415 C0.571388889,40.79115 0.718055556,40.89465 0.890694444,40.93215 C0.938055556,40.94265 0.988472222,40.94865 1.03888889,40.94865 L10.2834722,40.94865 L10.29875,41.11665 C10.6272222,44.82615 13.7331944,47.62815 17.5266667,47.63415 L20.8251389,47.63415 C23.5354167,47.63115 25.9997222,46.16265 27.2540278,43.80465 L27.4190278,43.49265 Z M37.3129167,48.00015 L34.0144444,48.00015 C31.2797222,47.99715 28.7833333,46.57665 27.4190278,44.26965 C26.05625,46.57515 23.5613889,47.99715 20.8251389,48.00015 L17.5266667,48.00015 C13.5956944,47.99415 10.3659722,45.13215 9.94277778,41.31465 L1.03888889,41.31465 C0.959444444,41.31465 0.881527778,41.30565 0.808194444,41.28915 C0.537777778,41.22915 0.307083333,41.07015 0.160416667,40.84065 C0.0122222222,40.60965 -0.0351388889,40.33665 0.0259722222,40.07115 L3.11055556,26.70315 C3.21902778,26.23515 3.63611111,25.90815 4.12347222,25.90815 L17.7390278,25.90815 C18.2065278,25.90815 18.6175,26.21715 18.74125,26.65815 L22.4644444,40.02765 C22.4888889,40.11765 22.5011111,40.20765 22.5011111,40.29615 C22.5011111,40.85865 22.0351389,41.31465 21.46375,41.31465 L21.4622222,41.31465 L12.0327778,41.31465 C12.4406944,43.97415 14.7659722,45.95865 17.5266667,45.96315 L20.8251389,45.96315 C23.8852778,45.95865 26.3786111,43.51065 26.3816667,40.50465 L26.3816667,6.22215 L15.7177778,6.22215 C15.2411111,6.22215 14.8270833,5.90415 14.7125,5.45115 L13.6476389,1.27365 C13.6277778,1.19115 13.6170833,1.10715 13.6170833,1.02765 C13.6170833,0.46515 14.0830556,0.00765 14.6544444,0.00765 L40.1851389,0.00765 C40.2706944,0.00765 40.3547222,0.01815 40.4372222,0.03765 C40.9918056,0.17415 41.3294444,0.72765 41.1919444,1.27365 L40.1286111,5.45115 C40.0125,5.90415 39.5984722,6.22215 39.1218056,6.22215 L28.4579167,6.22215 L28.4579167,40.50615 C28.4609722,43.51065 30.9543056,45.95865 34.0159722,45.96315 L37.3129167,45.96315 C40.0736111,45.95865 42.3988889,43.97415 42.8068056,41.31465 L33.3773611,41.31465 C33.2826389,41.31465 33.1894444,41.30265 33.1023611,41.27865 C32.835,41.20815 32.6119444,41.03715 32.4759722,40.80015 C32.3384722,40.56465 32.3033333,40.28865 32.3766667,40.02765 L36.0983333,26.65815 C36.2220833,26.21715 36.6345833,25.90815 37.1005556,25.90815 L50.7161111,25.90815 C51.205,25.90815 51.6205556,26.23515 51.7290278,26.70315 L54.8136111,40.07115 C54.8304167,40.14315 54.8395833,40.21815 54.8395833,40.29615 C54.8395833,40.56915 54.7311111,40.82565 54.5355556,41.01765 C54.34,41.20965 54.07875,41.31465 53.8022222,41.31465 L53.8006944,41.31465 L44.8968056,41.31465 C44.4751389,45.13215 41.2438889,47.99415 37.3129167,48.00015 Z" id="Fill-3" fill="#C97859" mask="url(#mask-2)"></path>
                    </g>
                </g>
            </g>
        </g>
    </g>
</svg>