<?xml version="1.0" encoding="UTF-8"?>
<svg width="45px" height="45px" viewBox="0 0 45 45" version="1.1" xmlns="http://www.w3.org/2000/svg" xmlns:xlink="http://www.w3.org/1999/xlink">
    <!-- Generator: Sketch 52.2 (67145) - http://www.bohemiancoding.com/sketch -->
    <title>Load More</title>
    <desc>Created with Sketch.</desc>
    <g id="Desktop-Ver2.0" stroke="none" stroke-width="1" fill="none" fill-rule="evenodd">
        <g id="04_Collection_Landing_2Grids" transform="translate(-698.000000, -3774.000000)" fill="#000000">
            <g id="Load-More" transform="translate(698.000000, 3774.000000)">
                <path d="M22.72,0.4 C10.5697355,0.4 0.72,10.2497355 0.72,22.4 C0.72,34.5502645 10.5697355,44.4 22.72,44.4 C34.8702645,44.4 44.72,34.5502645 44.72,22.4 C44.72,10.2497355 34.8702645,0.4 22.72,0.4 L22.72,0.4 Z M22.72,41.4 C12.2265898,41.4 3.72,32.8934102 3.72,22.4 C3.72,11.9065898 12.2265898,3.4 22.72,3.4 C33.2134102,3.4 41.72,11.9065898 41.72,22.4 C41.72,27.4391133 39.71822,32.2718377 36.1550288,35.8350288 C32.5918377,39.39822 27.7591133,41.4 22.72,41.4 Z" id="Shape"></path>
                <path d="M30.72,21.4 L24.72,21.4 L24.72,15.4 C24.72,14.5715729 24.0484271,13.9 23.22,13.9 C22.3915729,13.9 21.72,14.5715729 21.72,15.4 L21.72,21.4 L15.72,21.4 C14.8915729,21.4 14.22,22.0715729 14.22,22.9 C14.22,23.7284271 14.8915729,24.4 15.72,24.4 L21.72,24.4 L21.72,30.4 C21.72,31.2284271 22.3915729,31.9 23.22,31.9 C24.0484271,31.9 24.72,31.2284271 24.72,30.4 L24.72,24.4 L30.72,24.4 C31.5484271,24.4 32.22,23.7284271 32.22,22.9 C32.22,22.0715729 31.5484271,21.4 30.72,21.4 L30.72,21.4 Z" id="Shape"></path>
            </g>
        </g>
    </g>
</svg>