<?xml version="1.0" encoding="UTF-8"?>
<svg width="20px" height="20px" viewBox="0 0 20 20" version="1.1" xmlns="http://www.w3.org/2000/svg" xmlns:xlink="http://www.w3.org/1999/xlink">
    <!-- Generator: Sketch 52.2 (67145) - http://www.bohemiancoding.com/sketch -->
    <title>Language-2</title>
    <desc>Created with Sketch.</desc>
    <g id="Desktop-Ver2.0" stroke="none" stroke-width="1" fill="none" fill-rule="evenodd">
        <g id="01_Home_Menu-(Active/Hover)" transform="translate(-131.000000, -800.000000)" fill="#58585A">
            <g id="Language-2" transform="translate(131.000000, 800.000000)">
                <path d="M10.0977778,0.177777778 C4.69766022,0.177777778 0.32,4.555438 0.32,9.95555556 C0.32,15.3556731 4.69766022,19.7333333 10.0977778,19.7333333 C15.4978953,19.7333333 19.8755556,15.3556731 19.8755556,9.95555556 C19.8755556,4.555438 15.4978953,0.177777778 10.0977778,0.177777778 L10.0977778,0.177777778 Z M18.52,9.51111111 L15.4311111,9.51111111 C15.2977778,6.59111111 14.0577778,3.60444444 11.9822222,1.72888889 C15.6534263,2.57421977 18.3206327,5.7491201 18.52,9.51111111 L18.52,9.51111111 Z M9.20888889,2.44888889 L9.20888889,9.51111111 L6.09777778,9.51111111 C6.22666667,6.72444444 7.32444444,4.00444444 9.20888889,2.44888889 Z M9.20888889,10.8444444 L9.20888889,17.3911111 C7.45333333,15.8444444 6.35111111,13.3333333 6.09777778,10.8444444 L9.20888889,10.8444444 Z M10.5422222,17.5955556 L10.5422222,10.8444444 L14.0977778,10.8444444 C13.8044444,13.3733333 12.4933333,16.04 10.5422222,17.5955556 Z M10.5422222,9.51111111 L10.5422222,2.25777778 C12.64,3.80888889 13.9511111,6.70222222 14.0977778,9.51111111 L10.5422222,9.51111111 Z M7.94222222,1.8 C5.99555556,3.64888889 4.88444444,6.55555556 4.76444444,9.51111111 L1.67555556,9.51111111 C1.8711207,5.85370862 4.40210005,2.7393475 7.94222222,1.8 L7.94222222,1.8 Z M1.72,10.8444444 L4.78222222,10.8444444 C5.03111111,13.5644444 6.2,16.3333333 8.08444444,18.1422222 C4.63345165,17.2947927 2.08222761,14.3775853 1.70222222,10.8444444 L1.72,10.8444444 Z M11.8977778,18.2088889 C13.9267897,16.2591835 15.1884884,13.6458901 15.4533333,10.8444444 L18.5644444,10.8444444 C18.1555323,14.4829709 15.4620255,17.4504846 11.88,18.2088889 L11.8977778,18.2088889 Z" id="Shape"></path>
            </g>
        </g>
    </g>
</svg>