<?xml version="1.0" encoding="UTF-8"?>
<svg width="20px" height="18px" viewBox="0 0 20 18" version="1.1" xmlns="http://www.w3.org/2000/svg" xmlns:xlink="http://www.w3.org/1999/xlink">
    <!-- Generator: Sketch 52.2 (67145) - http://www.bohemiancoding.com/sketch -->
    <title>2</title>
    <desc>Created with Sketch.</desc>
    <defs>
        <path d="M17.9441797,4.92638672 C17.956875,5.10404297 17.956875,5.28173828 17.956875,5.45939453 C17.956875,10.8781445 13.8325391,17.1218164 6.29445312,17.1218164 C3.97210937,17.1218164 1.81476562,16.4491992 3.90624991e-05,15.2817383 C0.33,15.3197852 0.647226562,15.3324805 0.989882812,15.3324805 C2.90609375,15.3324805 4.67007812,14.685293 6.07871094,13.5812305 C4.27667969,13.5431445 2.76652344,12.3629492 2.24621094,10.7385742 C2.50003906,10.7766211 2.75382812,10.8020117 3.02035156,10.8020117 C3.38835937,10.8020117 3.75640625,10.7512305 4.09902344,10.6624414 C2.22085937,10.2816992 0.8121875,8.63197266 0.8121875,6.63958984 L0.8121875,6.58884766 C1.35785156,6.89341797 1.99242187,7.08376953 2.66496094,7.10912109 C1.56089844,6.37306641 0.837578125,5.11673828 0.837578125,3.69541016 C0.837578125,2.93400391 1.04058594,2.23603516 1.3959375,1.62689453 C3.41371094,4.11419922 6.44671875,5.73853516 9.84769531,5.91623047 C9.78425781,5.61166016 9.74617187,5.29443359 9.74617187,4.97716797 C9.74617187,2.71826172 11.5735937,0.878183594 13.8451562,0.878183594 C15.0253516,0.878183594 16.0913281,1.37310547 16.8400781,2.17259766 C17.7664453,1.99494141 18.6547656,1.65228516 19.4416016,1.18275391 C19.1369922,2.13455078 18.4898047,2.93404297 17.6395703,3.44162109 C18.4644531,3.35283203 19.2639453,3.12435547 19.9999609,2.80712891 C19.4416797,3.61927734 18.7436719,4.34259766 17.9441797,4.92638672 Z" id="path-1"></path>
    </defs>
    <g id="Desktop-Ver2.0" stroke="none" stroke-width="1" fill="none" fill-rule="evenodd">
        <g id="01_Home_Menu-(Active)" transform="translate(-1233.000000, -801.000000)">
            <g id="Under-Footer" transform="translate(131.000000, 791.000000)">
                <g id="Social_icons" transform="translate(1049.000000, 9.000000)">
                    <g id="2" transform="translate(53.000000, 1.000000)">
                        <g id="Icons/Brands/twitter">
                            <mask id="mask-2" fill="white">
                                <use xlink:href="#path-1"></use>
                            </mask>
                            <use id="twitter" fill="#58585A" fill-rule="nonzero" xlink:href="#path-1"></use>
                        </g>
                    </g>
                </g>
            </g>
        </g>
    </g>
</svg>