<?xml version="1.0" encoding="UTF-8"?>
<svg width="20px" height="14px" viewBox="0 0 20 14" version="1.1" xmlns="http://www.w3.org/2000/svg" xmlns:xlink="http://www.w3.org/1999/xlink">
    <!-- Generator: Sketch 52.2 (67145) - http://www.bohemiancoding.com/sketch -->
    <title>3</title>
    <desc>Created with Sketch.</desc>
    <defs>
        <path d="M19.0852431,2.36229297 C18.8671528,1.53084766 18.2245833,0.876027344 17.4087153,0.653804687 C15.9298958,0.25 10,0.25 10,0.25 C10,0.25 4.07013889,0.25 2.59128472,0.653804688 C1.77541667,0.8760625 1.13284722,1.53084766 0.914756944,2.36229297 C0.518506944,3.86933594 0.518506944,7.01364063 0.518506944,7.01364063 C0.518506944,7.01364063 0.518506944,10.1579453 0.914756944,11.6649883 C1.13284722,12.4964336 1.77541667,13.1239727 2.59128472,13.3461953 C4.07013889,13.75 10,13.75 10,13.75 C10,13.75 15.9298611,13.75 17.4087153,13.3461953 C18.2245833,13.1239727 18.8671528,12.4964336 19.0852431,11.6649883 C19.4814931,10.1579453 19.4814931,7.01364062 19.4814931,7.01364062 C19.4814931,7.01364062 19.4814931,3.86933594 19.0852431,2.36229297 Z M8.06059028,9.86843359 L8.06059028,4.15884766 L13.0168056,7.01371094 L8.06059028,9.86843359 Z" id="path-1"></path>
    </defs>
    <g id="Desktop-Ver2.0" stroke="none" stroke-width="1" fill="none" fill-rule="evenodd">
        <g id="06_Store-&amp;-Distributor_Detail" transform="translate(-1289.000000, -3366.000000)">
            <g id="Footer" transform="translate(0.000000, 2973.000000)">
                <g id="Social_icons" transform="translate(1180.000000, 390.000000)">
                    <g id="3" transform="translate(109.000000, 3.000000)">
                        <g id="Icons/Brands/youtube">
                            <mask id="mask-2" fill="white">
                                <use xlink:href="#path-1"></use>
                            </mask>
                            <use id="youtube" fill="#FFFFFF" fill-rule="nonzero" xlink:href="#path-1"></use>
                        </g>
                    </g>
                </g>
            </g>
        </g>
    </g>
</svg>