<?xml version="1.0" encoding="UTF-8"?>
<svg width="78px" height="114px" viewBox="0 0 78 114" version="1.1" xmlns="http://www.w3.org/2000/svg" xmlns:xlink="http://www.w3.org/1999/xlink">
    <!-- Generator: Sketch 52.2 (67145) - http://www.bohemiancoding.com/sketch -->
    <title>Manas Logo</title>
    <desc>Created with Sketch.</desc>
    <defs>
        <polygon id="path-1" points="0 78 38.8904286 78 38.8904286 0.21852381 0 0.21852381"></polygon>
    </defs>
    <g id="Desktop-Ver2.0" stroke="none" stroke-width="1" fill="none" fill-rule="evenodd">
        <g id="06_Store-&amp;-Distributor_Detail" transform="translate(-131.000000, 0.000000)">
            <g id="Manas-Logo" transform="translate(131.000000, 0.000000)">
                <rect id="Rectangle" fill="#58585A" x="0" y="0" width="78" height="114"></rect>
                <g id="Logo" transform="translate(20.000000, 18.000000)">
                    <path d="M0,77.3389831 L39,77.3389831 L39,0 L0,0 L0,77.3389831 Z M1.03173946,76.3165864 L37.9676398,76.3165864 L37.9676398,1.02239666 L1.03173946,1.02239666 L1.03173946,76.3165864 Z" id="Fill-1" fill="#FEFEFE"></path>
                    <path d="M31.1389,52.0921143 L31.1389,19.1494952 L33.7153762,19.1494952 L33.7153762,17.0404 L5.14075714,17.0404 L5.14075714,19.1494952 L7.80761429,19.1494952 L7.80761429,52.0927333 L12.9927571,52.0927333 L12.9933762,20.9484476 C12.9933762,19.8886381 13.9200905,19.1494952 14.8771381,19.1494952 C15.9487095,19.1494952 16.8791381,19.7010667 16.8791381,20.952781 L16.8791381,52.0921143 L22.0574714,52.0921143 L22.0574714,20.9484476 C22.0574714,19.8886381 23.0337095,19.1494952 23.9548524,19.1494952 C24.9694714,19.1494952 25.9450905,19.7382095 25.9450905,20.9484476 L25.9450905,52.0921143 L31.1389,52.0921143 Z" id="Fill-2" fill="#FEFEFE"></path>
                    <mask id="mask-2" fill="white">
                        <use xlink:href="#path-1"></use>
                    </mask>
                    <g id="Clip-5"></g>
                    <polygon id="Fill-4" fill="#FEFEFE" mask="url(#mask-2)" points="5.16285714 55.9458095 33.682381 55.9458095 33.682381 53.3532381 5.16285714 53.3532381"></polygon>
                    <polygon id="Fill-6" fill="#FEFEFE" mask="url(#mask-2)" points="5.19071429 8.00490476 33.7102381 8.00490476 33.7102381 5.41233333 5.19071429 5.41233333"></polygon>
                    <polygon id="Fill-7" fill="#FEFEFE" mask="url(#mask-2)" points="6.5377619 11.9179048 32.4647143 11.9179048 32.4647143 9.32533333 6.5377619 9.32533333"></polygon>
                    <polygon id="Fill-8" fill="#FEFEFE" mask="url(#mask-2)" points="7.78761905 15.7764286 31.122 15.7764286 31.122 13.1838571 7.78761905 13.1838571"></polygon>
                    <polygon id="Fill-9" fill="#FEFEFE" mask="url(#mask-2)" points="13.5658095 68.7919143 13.5658095 70.6769143 14.6708095 70.6769143 14.6708095 70.8836762 13.3219048 70.8836762 13.3219048 68.7919143"></polygon>
                    <polygon id="Fill-10" fill="#FEFEFE" mask="url(#mask-2)" points="15.5579048 70.8834286 15.7987143 70.8834286 15.7987143 68.7916667 15.5579048 68.7916667"></polygon>
                    <polygon id="Fill-11" fill="#FEFEFE" mask="url(#mask-2)" points="16.9325 68.7919143 17.6437857 70.6694857 18.3587857 68.7919143 18.6249762 68.7919143 17.8152619 70.8836762 17.466119 70.8836762 16.6656905 68.7919143"></polygon>
                    <polygon id="Fill-12" fill="#FEFEFE" mask="url(#mask-2)" points="19.4820476 70.8834286 19.7228571 70.8834286 19.7228571 68.7916667 19.4820476 68.7916667"></polygon>
                    <polygon id="Fill-13" fill="#FEFEFE" mask="url(#mask-2)" points="21.0364143 70.8836143 20.7956048 70.8836143 20.7956048 68.7918524 21.0661286 68.7918524 22.2899857 70.541281 22.2899857 68.7949476 22.5264619 68.7949476 22.5264619 70.8836143 22.2584143 70.8836143 21.0364143 69.137281"></polygon>
                    <path d="M25.3785381,70.8836143 L25.1804429,70.8836143 L25.1587762,70.4899 C25.1160619,70.6031857 25.0331095,70.7028524 24.9080619,70.7901381 C24.7823952,70.8761857 24.6313476,70.918281 24.4543,70.9151857 C24.1534429,70.9151857 23.9138714,70.8111857 23.7343476,70.607519 C23.5548238,70.4032333 23.4650619,70.1438524 23.4650619,69.8318524 C23.4650619,69.5179952 23.5560619,69.2610905 23.7374429,69.0586619 C23.9182048,68.8574714 24.1590143,68.7559476 24.4604905,68.7559476 C24.6895381,68.7559476 24.8882524,68.8190905 25.0504429,68.9441381 C25.2144905,69.0685667 25.3141571,69.242519 25.3500619,69.4647571 L25.0888238,69.4647571 C25.0523,69.3038048 24.9792524,69.1824714 24.8678238,69.098281 C24.7582524,69.0140905 24.6214429,68.9713762 24.4573952,68.9713762 C24.2333,68.9713762 24.0550143,69.0530905 23.9225381,69.2159 C23.7900619,69.3762333 23.7244429,69.5829952 23.7244429,69.8374238 C23.7244429,70.0881381 23.7900619,70.2936619 23.9213,70.4546143 C24.0525381,70.6137095 24.2308238,70.6954238 24.4543,70.6954238 C24.6325857,70.6954238 24.7854905,70.6409476 24.9123952,70.5332333 C25.0393,70.4230429 25.1117286,70.2559 25.1321571,70.0311857 L24.5155857,70.0311857 L24.5155857,69.8225667 L25.3785381,69.8225667 L25.3785381,70.8836143 Z" id="Fill-14" fill="#FEFEFE" mask="url(#mask-2)"></path>
                    <polygon id="Fill-15" fill="#FEFEFE" mask="url(#mask-2)" points="5.20476667 66.5714524 5.20476667 62.0319762 5.50748095 62.0319762 7.47481429 64.2716905 9.44462381 62.0319762 9.7473381 62.0319762 9.7473381 66.5714524 8.83919524 66.5714524 8.8361 63.9386429 7.47481429 65.4515952 6.11290952 63.9386429 6.11290952 66.5714524"></polygon>
                    <path d="M13.9464,63.2428333 L13.256781,64.9675 L14.6180667,64.9675 L13.9464,63.2428333 Z M11.6522095,66.5714524 L13.4678762,62.0319762 L14.376019,62.0319762 L16.1885905,66.5683571 L15.2234952,66.5714524 L14.9511143,65.8750238 L12.8934,65.8750238 L12.621019,66.5714524 L11.6522095,66.5714524 Z" id="Fill-16" fill="#FEFEFE" mask="url(#mask-2)"></path>
                    <polygon id="Fill-17" fill="#FEFEFE" mask="url(#mask-2)" points="18.1059048 66.5714524 18.1059048 62.0319762 18.408619 62.0319762 21.2531429 64.877119 21.2531429 62.0319762 22.1612857 62.0319762 22.1612857 66.5714524 21.8282381 66.5714524 19.0140476 63.7572619 19.0140476 66.5714524"></polygon>
                    <path d="M26.233319,63.2428333 L25.543081,64.9675 L26.9049857,64.9675 L26.233319,63.2428333 Z M23.9391286,66.5714524 L25.7547952,62.0319762 L26.6629381,62.0319762 L28.4755095,66.5683571 L27.5104143,66.5714524 L27.2380333,65.8750238 L25.180319,65.8750238 L24.907319,66.5714524 L23.9391286,66.5714524 Z" id="Fill-18" fill="#FEFEFE" mask="url(#mask-2)"></path>
                    <path d="M33.0135619,62.1830857 C33.2457048,62.2846095 33.4623714,62.4356571 33.664181,62.6368476 L33.0587524,63.2428952 C32.8569429,63.0002286 32.5752762,62.8795143 32.2118952,62.8795143 C31.8485143,62.8795143 31.6163714,62.9649429 31.5154667,63.136419 C31.4145619,63.3078952 31.4145619,63.4546095 31.5154667,63.5753238 C31.6163714,63.6960381 31.8485143,63.7876571 32.2118952,63.8477048 C32.5950857,63.8879429 32.9429905,64.0142286 33.2556095,64.2259429 C33.5682286,64.4382762 33.7242286,64.7756571 33.7242286,65.2393238 C33.7242286,65.6027048 33.5577048,65.9153238 33.2240381,66.1778 C32.8897524,66.4402762 32.5009905,66.5715143 32.0571333,66.5715143 C31.6355619,66.5715143 31.2833238,66.5108476 31.0010381,66.3901333 C30.7181333,66.2688 30.4767048,66.1072286 30.2748952,65.9060381 L30.8803238,65.3006095 C31.0815143,65.5426571 31.4250857,65.6838 31.909181,65.7240381 C32.312181,65.7240381 32.5641333,65.6386095 32.664419,65.4665143 C32.7640857,65.2950381 32.7640857,65.124181 32.664419,64.9520857 C32.5641333,64.7806095 32.312181,64.6747524 31.909181,64.6345143 C31.5458,64.5942762 31.2127524,64.4834667 30.9106571,64.3014667 C30.6079429,64.1200857 30.4562762,63.8074667 30.4562762,63.3636095 C30.4562762,62.9624667 30.6277524,62.6399429 30.9725619,62.3966571 C31.3161333,62.1533714 31.6702286,62.0320381 32.0329905,62.0320381 C32.4545619,62.0320381 32.781419,62.0828 33.0135619,62.1830857" id="Fill-19" fill="#FEFEFE" mask="url(#mask-2)"></path>
                    <polygon id="Fill-20" fill="#FEFEFE" mask="url(#mask-2)" points="5.2 60.2710952 33.7195238 60.2710952 33.7195238 59.839 5.2 59.839"></polygon>
                    <polygon id="Fill-21" fill="#FEFEFE" mask="url(#mask-2)" points="5.23838095 72.7987619 33.7579048 72.7987619 33.7579048 72.3251905 5.23838095 72.3251905"></polygon>
                </g>
            </g>
        </g>
    </g>
</svg>