<?xml version="1.0" encoding="UTF-8"?>
<svg width="68px" height="137px" viewBox="0 0 68 137" version="1.1" xmlns="http://www.w3.org/2000/svg" xmlns:xlink="http://www.w3.org/1999/xlink">
    <!-- Generator: Sketch 52.2 (67145) - http://www.bohemiancoding.com/sketch -->
    <title>Manas Logo Copy</title>
    <desc>Created with Sketch.</desc>
    <defs>
        <polygon id="path-1" points="0 136.727021 67.8089524 136.727021 67.8089524 0.383052685 0 0.383052685"></polygon>
    </defs>
    <g id="Desktop-Ver2.0" stroke="none" stroke-width="1" fill="none" fill-rule="evenodd">
        <g id="06_Store-&amp;-Distributor_Detail" transform="translate(-131.000000, -3046.000000)">
            <g id="Footer" transform="translate(0.000000, 2973.000000)">
                <g id="Manas-Logo-Copy" transform="translate(131.000000, 73.000000)">
                    <path d="M0,137 L68,137 L68,0 L0,0 L0,137 Z M1.79893035,135.188904 L66.1999873,135.188904 L66.1999873,1.81109625 L1.79893035,1.81109625 L1.79893035,135.188904 Z" id="Fill-1" fill="#FEFEFE"></path>
                    <g id="Group-22">
                        <path d="M54.2934667,91.3128152 L54.2934667,33.5673517 L58.7857841,33.5673517 L58.7857841,29.8702965 L8.96337143,29.8702965 L8.96337143,33.5673517 L13.6132762,33.5673517 L13.6132762,91.3139004 L22.6540381,91.3139004 L22.6551175,36.7207542 C22.6551175,34.863003 24.270927,33.5673517 25.9396254,33.5673517 C27.8080063,33.5673517 29.4302921,34.5342071 29.4302921,36.7283502 L29.4302921,91.3128152 L38.459181,91.3128152 L38.459181,36.7207542 C38.459181,34.863003 40.1613397,33.5673517 41.7674349,33.5673517 C43.5365143,33.5673517 45.2375937,34.5993152 45.2375937,36.7207542 L45.2375937,91.3128152 L54.2934667,91.3128152 Z" id="Fill-2" fill="#FEFEFE"></path>
                        <mask id="mask-2" fill="white">
                            <use xlink:href="#path-1"></use>
                        </mask>
                        <g id="Clip-5"></g>
                        <polygon id="Fill-4" fill="#FEFEFE" mask="url(#mask-2)" points="9.00190476 98.0679982 58.728254 98.0679982 58.728254 93.5234524 9.00190476 93.5234524"></polygon>
                        <polygon id="Fill-6" fill="#FEFEFE" mask="url(#mask-2)" points="9.05047619 14.0318818 58.7768254 14.0318818 58.7768254 9.48733605 9.05047619 9.48733605"></polygon>
                        <polygon id="Fill-7" fill="#FEFEFE" mask="url(#mask-2)" points="11.3991746 20.8910207 56.6051429 20.8910207 56.6051429 16.3464749 11.3991746 16.3464749"></polygon>
                        <polygon id="Fill-8" fill="#FEFEFE" mask="url(#mask-2)" points="13.5784127 27.6546676 54.264 27.6546676 54.264 23.1101219 13.5784127 23.1101219"></polygon>
                        <polygon id="Fill-9" fill="#FEFEFE" mask="url(#mask-2)" points="23.6532063 120.58607 23.6532063 123.890307 25.579873 123.890307 25.579873 124.252742 23.2279365 124.252742 23.2279365 120.58607"></polygon>
                        <polygon id="Fill-10" fill="#FEFEFE" mask="url(#mask-2)" points="27.1266032 124.252308 27.5464762 124.252308 27.5464762 120.585636 27.1266032 120.585636"></polygon>
                        <polygon id="Fill-11" fill="#FEFEFE" mask="url(#mask-2)" points="29.5233333 120.58607 30.7635238 123.877285 32.0101905 120.58607 32.4743175 120.58607 31.0625079 124.252742 30.453746 124.252742 29.058127 120.58607"></polygon>
                        <polygon id="Fill-12" fill="#FEFEFE" mask="url(#mask-2)" points="33.9686984 124.252308 34.3885714 124.252308 34.3885714 120.585636 33.9686984 120.585636"></polygon>
                        <polygon id="Fill-13" fill="#FEFEFE" mask="url(#mask-2)" points="36.6788762 124.252633 36.2590032 124.252633 36.2590032 120.585962 36.7306857 120.585962 38.8645905 123.652554 38.8645905 120.591388 39.2769079 120.591388 39.2769079 124.252633 38.8095429 124.252633 36.6788762 121.191467"></polygon>
                        <path d="M44.2497587,124.252633 L43.9043619,124.252633 L43.8665841,123.562487 C43.7921079,123.761067 43.647473,123.935774 43.4294413,124.088778 C43.2103302,124.239612 42.9469651,124.313401 42.6382667,124.307975 C42.1136952,124.307975 41.695981,124.125673 41.3829651,123.768663 C41.0699492,123.410568 40.9134413,122.955897 40.9134413,122.408989 C40.9134413,121.858825 41.0721079,121.408494 41.3883619,121.053655 C41.7035365,120.700986 42.1234095,120.523024 42.6490603,120.523024 C43.0484254,120.523024 43.3949016,120.633708 43.6776952,120.852905 C43.963727,121.071017 44.1375048,121.37594 44.2001079,121.765504 L43.7446159,121.765504 C43.6809333,121.483369 43.5535683,121.270682 43.3592825,121.123104 C43.1682349,120.975525 42.9296952,120.900651 42.6436635,120.900651 C42.2529333,120.900651 41.9420762,121.043889 41.7110921,121.329279 C41.4801079,121.610329 41.3656952,121.972764 41.3656952,122.418755 C41.3656952,122.858235 41.4801079,123.2185 41.7089333,123.500635 C41.9377587,123.779514 42.2486159,123.922752 42.6382667,123.922752 C42.9491238,123.922752 43.215727,123.82726 43.4369968,123.638447 C43.6582667,123.445293 43.7845524,123.152306 43.8201714,122.758402 L42.7451238,122.758402 L42.7451238,122.392712 L44.2497587,122.392712 L44.2497587,124.252633 Z" id="Fill-14" fill="#FEFEFE" mask="url(#mask-2)"></path>
                        <polygon id="Fill-15" fill="#FEFEFE" mask="url(#mask-2)" points="9.07497778 116.693799 9.07497778 108.736504 9.6027873 108.736504 13.0330095 112.662522 16.4675492 108.736504 16.9953587 108.736504 16.9953587 116.693799 15.4119302 116.693799 15.4065333 112.07872 13.0330095 114.73079 10.6584063 112.07872 10.6584063 116.693799"></polygon>
                        <path d="M24.3168,110.859028 L23.1143873,113.882214 L25.4879111,113.882214 L24.3168,110.859028 Z M20.316673,116.693799 L23.4824508,108.736504 L25.0658794,108.736504 L28.2262603,116.688374 L26.5435302,116.693799 L26.0686095,115.473022 L22.4808,115.473022 L22.0058794,116.693799 L20.316673,116.693799 Z" id="Fill-16" fill="#FEFEFE" mask="url(#mask-2)"></path>
                        <polygon id="Fill-17" fill="#FEFEFE" mask="url(#mask-2)" points="31.5692698 116.693799 31.5692698 108.736504 32.0970794 108.736504 37.0567619 113.723785 37.0567619 108.736504 38.6401905 108.736504 38.6401905 116.693799 38.0594921 116.693799 33.1526984 111.760775 33.1526984 116.693799"></polygon>
                        <path d="M45.740146,110.859028 L44.536654,113.882214 L46.9112571,113.882214 L45.740146,110.859028 Z M41.740019,116.693799 L44.9057968,108.736504 L46.4892254,108.736504 L49.6496063,116.688374 L47.9668762,116.693799 L47.4919556,115.473022 L43.904146,115.473022 L43.428146,116.693799 L41.740019,116.693799 Z" id="Fill-18" fill="#FEFEFE" mask="url(#mask-2)"></path>
                        <path d="M57.5621079,109.001385 C57.9668698,109.179347 58.3446476,109.44412 58.6965206,109.796789 L57.6409016,110.859136 C57.2890286,110.433764 56.7979175,110.222162 56.1643302,110.222162 C55.5307429,110.222162 55.125981,110.371911 54.9500444,110.672493 C54.7741079,110.973076 54.7741079,111.230253 54.9500444,111.441854 C55.125981,111.653455 55.5307429,111.814055 56.1643302,111.919313 C56.8324571,111.989847 57.4390603,112.211215 57.9841397,112.582331 C58.529219,112.954532 58.801219,113.545931 58.801219,114.358697 C58.801219,114.995671 58.5108698,115.543665 57.9290921,116.003762 C57.3462349,116.463859 56.6683937,116.693908 55.8944889,116.693908 C55.1594413,116.693908 54.5452825,116.587565 54.0530921,116.375963 C53.5598222,116.163277 53.1388698,115.880057 52.7869968,115.527388 L53.8426159,114.466126 C54.1934095,114.890413 54.7924571,115.137824 55.6365206,115.208358 C56.3391873,115.208358 56.7784889,115.058609 56.953346,114.756942 C57.1271238,114.456359 57.1271238,114.156862 56.953346,113.855194 C56.7784889,113.554612 56.3391873,113.369054 55.6365206,113.29852 C55.0029333,113.227986 54.4222349,113.033747 53.8955048,112.714717 C53.3676952,112.396773 53.1032508,111.84878 53.1032508,111.070738 C53.1032508,110.36757 53.4022349,109.802215 54.0034413,109.375757 C54.6024889,108.949299 55.2198857,108.736612 55.8523937,108.736612 C56.5874413,108.736612 57.157346,108.825593 57.5621079,109.001385" id="Fill-19" fill="#FEFEFE" mask="url(#mask-2)"></path>
                        <polygon id="Fill-20" fill="#FEFEFE" mask="url(#mask-2)" points="9.06666667 105.649837 58.7930159 105.649837 58.7930159 104.892413 9.06666667 104.892413"></polygon>
                        <polygon id="Fill-21" fill="#FEFEFE" mask="url(#mask-2)" points="9.1335873 127.609716 58.8599365 127.609716 58.8599365 126.779587 9.1335873 126.779587"></polygon>
                    </g>
                </g>
            </g>
        </g>
    </g>
</svg>