<?xml version="1.0" encoding="UTF-8"?>
<svg width="178px" height="81px" viewBox="0 0 178 81" version="1.1" xmlns="http://www.w3.org/2000/svg" xmlns:xlink="http://www.w3.org/1999/xlink">
    <!-- Generator: Sketch 52.2 (67145) - http://www.bohemiancoding.com/sketch -->
    <title>Group 80</title>
    <desc>Created with Sketch.</desc>
    <defs>
        <polygon id="path-1" points="0.0962438536 0.594835343 8.86280269 0.594835343 8.86280269 15.3348616 0.0962438536 15.3348616"></polygon>
        <polygon id="path-3" points="0.504141576 0.359465469 6.87225158 0.359465469 6.87225158 14.9313433 0.504141576 14.9313433"></polygon>
        <polygon id="path-5" points="0.205226435 0.636515821 23.5032805 0.636515821 23.5032805 23.2990639 0.205226435 23.2990639"></polygon>
    </defs>
    <g id="Desktop-Ver2.0" stroke="none" stroke-width="1" fill="none" fill-rule="evenodd">
        <g id="01_Home_Landing" transform="translate(-231.000000, -5012.000000)">
            <g id="Group-17" transform="translate(231.000000, 4781.000000)">
                <g id="Group-11" transform="translate(0.000000, 220.000000)">
                    <g id="Group-80" transform="translate(0.000000, 11.000000)">
                        <path d="M11,54.9941652 C11,57.464991 8.77223558,59 5.05378606,59 L2.55994591,59 L0,59 L0,58.6667415 L1.4460637,57.8874551 L1.4460637,45.1125449 L0,44.3332585 L0,44 L2.89543269,44 L4.96454327,44 C8.39378005,44 10.3538161,45.4693671 10.3538161,47.7399013 C10.3538161,49.6536131 8.86147837,50.9883303 6.5015024,51.255947 C9.30769231,51.4562388 11,52.8364004 11,54.9941652 Z M2.89543269,44.6900808 L2.89543269,50.9883303 L5.21078726,50.7880386 C7.57076322,50.5658662 8.7507512,49.475202 8.7507512,47.8509874 C8.7507512,46.092123 7.7046274,45.0014587 5.05378606,44.8247307 L2.89543269,44.6900808 Z M9.3969351,54.883079 C9.3969351,53.3245063 8.23843149,52.057114 5.21078726,51.7894973 L2.89543269,51.5892056 L2.89543269,58.3099192 L5.05378606,58.1550718 C7.97070313,57.9547801 9.3969351,56.975202 9.3969351,54.883079 Z" id="Fill-1" fill="#231F20"></path>
                        <polygon id="Fill-3" fill="#231F20" points="23 55.7734515 23 59 14.393534 59 13 59 13 58.6667415 14.393534 57.8874551 14.393534 45.1125449 13 44.3332585 13 44 15.7902532 44 22.8709986 44 22.8709986 47.2282316 22.5492913 47.2282316 21.2831661 44.8903725 15.7902532 44.8903725 15.7902532 50.942886 19.7160376 50.942886 20.682752 49.3859964 21.0044593 49.3859964 21.0044593 53.3918312 20.682752 53.3918312 19.7160376 51.8349417 15.7902532 51.8349417 15.7902532 58.1096275 21.4121675 58.1096275 22.6782927 55.7734515"></polygon>
                        <polygon id="Fill-4" fill="#231F20" points="39 44 39 44.3332585 37.5890224 45.1125449 37.5890224 59 36.6129352 59 28.3870648 46.1594479 28.3870648 57.8874551 29.7980424 58.6667415 29.7980424 59 26 59 26 58.6667415 27.4109776 57.8874551 27.4109776 45.1125449 26 44.3332585 26 44 28.3870648 44 28.8219551 44 36.6129352 56.24136 36.6129352 45.1125449 35.2019576 44.3332585 35.2019576 44"></polygon>
                        <polygon id="Fill-5" fill="#231F20" points="51 44 51 47.6725763 50.6728022 47.6725763 49.2328081 44.8903725 46.2199971 44.8903725 46.2199971 57.8874551 47.6389339 58.6667415 47.6389339 59 43.3821234 59 43.3821234 58.6667415 44.8010602 57.8874551 44.8010602 44.8903725 41.7688117 44.8903725 40.3271978 47.6725763 40 47.6725763 40 44"></polygon>
                        <polygon id="Fill-6" fill="#231F20" points="64 55.7953321 64 59 56.2328678 59 54 59 54 58.6667415 55.4225398 57.8874551 55.4225398 45.1125449 54 44.3332585 54 44 58.2676194 44 58.2676194 44.3332585 56.8450796 45.1125449 56.8450796 58.1096275 62.3809678 58.1096275 63.6719714 55.7953321"></polygon>
                        <polygon id="Fill-7" fill="#231F20" points="75 55.7734515 75 59 66.3951266 59 65 59 65 58.6667415 66.3951266 57.8874551 66.3951266 45.1125449 65 44.3332585 65 44 67.7902532 44 74.8709986 44 74.8709986 47.2282316 74.5492913 47.2282316 73.2831661 44.8903725 67.7902532 44.8903725 67.7902532 50.942886 71.7176302 50.942886 72.682752 49.3859964 73.0044593 49.3859964 73.0044593 53.3918312 72.682752 53.3918312 71.7176302 51.8349417 67.7902532 51.8349417 67.7902532 58.1096275 73.4121675 58.1096275 74.6782927 55.7734515"></polygon>
                        <polygon id="Fill-8" fill="#231F20" points="89 44 89 44.3332585 87.7219856 45.1125449 83.351746 53.3699506 83.351746 57.8874551 84.737316 58.6667415 84.737316 59 80.5821876 59 80.5821876 58.6667415 81.9677576 57.8874551 81.9677576 53.4355925 77.1720404 45.1125449 76 44.3332585 76 44 80.1772722 44 80.1772722 44.3332585 78.7917022 45.1125449 82.8614187 52.1682002 86.5483635 45.1125449 85.0568196 44.3332585 85.0568196 44"></polygon>
                        <path d="M109,51.5445978 C109,56.1289128 106.053864,59 101.818194,59 L99.4098949,59 L97,59 L97,58.6650959 L98.3980583,57.8875799 L98.3980583,45.1124201 L97,44.3349041 L97,44 L99.7961165,44 L101.775103,44 C105.709137,44 109,46.2702794 109,51.5445978 M107.451922,51.5664759 C107.451922,47.2716257 105.193643,45.1124201 101.732012,44.8465163 L99.7961165,44.6900034 L99.7961165,58.3099966 L102.009709,58.1534837 C105.536774,57.8875799 107.451922,55.4826658 107.451922,51.5664759" id="Fill-9" fill="#231F20"></path>
                        <polygon id="Fill-11" fill="#231F20" points="120 55.7734515 120 59 111.395127 59 110 59 110 58.6667415 111.395127 57.8874551 111.395127 45.1125449 110 44.3332585 110 44 112.790253 44 119.872591 44 119.872591 47.2282316 119.550884 47.2282316 118.283166 44.8903725 112.790253 44.8903725 112.790253 50.942886 116.71763 50.942886 117.682752 49.3859964 118.004459 49.3859964 118.004459 53.3918312 117.682752 53.3918312 116.71763 51.8349417 112.790253 51.8349417 112.790253 58.1096275 118.412168 58.1096275 119.678293 55.7734515"></polygon>
                        <path d="M124,58.3045813 L124,55.1530031 L124.334807,55.1530031 L126.121547,58.066199 C126.390055,58.1533319 126.859116,58.2388207 127.371271,58.2388207 C129.739779,58.2388207 131.390608,57.4135248 131.390608,55.3256247 C131.390608,51.5443884 124.11105,51.9997808 124.11105,47.7401359 C124.11105,45.6094915 125.876243,44 128.733702,44 C130.096133,44 131.055801,44.1956379 132.10663,44.6970627 L132.10663,47.8272687 L131.771823,47.8272687 L129.918785,44.7184349 C127.193923,44.7184349 125.718785,45.4352258 125.718785,47.5214818 C125.718785,50.9574748 133,50.8045813 133,55.0001096 C133,57.5006576 130.855249,59 127.861878,59 C126.322099,59 125.027624,58.8043621 124,58.3045813" id="Fill-12" fill="#231F20"></path>
                        <polygon id="Fill-14" fill="#231F20" points="133 44.3332585 133 44 137 44 137 44.3332585 135.666667 45.1125449 135.666667 57.8874551 137 58.6667415 137 59 133 59 133 58.6667415 134.333333 57.8874551 134.333333 45.1125449"></polygon>
                        <path d="M151,52.5744774 L151,58.2399037 C149.887693,58.7389734 148.607138,59 147.158335,59 C142.875797,59 140,55.9169312 140,51.5106709 C140,47.0387436 143.421045,44 147.536893,44 C148.669452,44 149.781759,44.1953595 150.685314,44.5860786 L150.685314,47.6248222 L150.370627,47.6248222 L148.85951,44.7814381 C144.178162,44.7814381 141.512675,47.1914195 141.512675,51.5106709 C141.512675,55.4392032 143.967852,58.2185619 147.557145,58.2185619 C148.334514,58.2185619 149.0262,58.1528948 149.635321,57.9361935 L149.635321,53.6596257 L148.166265,52.8995294 L148.166265,52.5744774 L151,52.5744774 Z" id="Fill-15" fill="#231F20"></path>
                        <polygon id="Fill-17" fill="#231F20" points="166 44 166 44.3332585 164.589022 45.1125449 164.589022 59 163.612935 59 155.387065 46.1594479 155.387065 57.8874551 156.798042 58.6667415 156.798042 59 153 59 153 58.6667415 154.410978 57.8874551 154.410978 45.1125449 153 44.3332585 153 44 155.387065 44 155.821955 44 163.612935 56.24136 163.612935 45.1125449 162.201958 44.3332585 162.201958 44"></polygon>
                        <g id="Group-79" transform="translate(22.000000, 0.000000)">
                            <g id="Group-20" transform="translate(146.924665, 43.619104)">
                                <mask id="mask-2" fill="white">
                                    <use xlink:href="#path-1"></use>
                                </mask>
                                <g id="Clip-19"></g>
                                <path d="M0.0962438536,14.6514956 L0.0962438536,11.5545392 L0.422384319,11.5545392 L2.16287651,14.4172449 C2.4244347,14.5028676 2.88135426,14.5868747 3.3802523,14.5868747 C5.68745391,14.5868747 7.29555245,13.7758825 7.29555245,11.7241691 C7.29555245,8.00846758 0.204419157,8.45596728 0.204419157,4.27014878 C0.204419157,2.17643176 1.92392211,0.594835343 4.70741796,0.594835343 C6.03458362,0.594835343 6.96941198,0.787082507 7.99304097,1.27981684 L7.99304097,4.35577146 L7.6669005,4.35577146 L5.86021149,1.30081863 C3.20749473,1.30081863 1.77053921,2.00518639 1.77053921,4.0552843 C1.77053921,7.43172609 8.86328706,7.28148251 8.86328706,11.4042956 C8.86328706,13.8615052 6.77405061,15.3348616 3.85977566,15.3348616 C2.35823787,15.3348616 1.09726904,15.1426144 0.0962438536,14.6514956" id="Fill-18" fill="#231F20" mask="url(#mask-2)"></path>
                            </g>
                            <path d="M5.96338166,75.4148468 C6.24431454,75.282374 5.98921457,71.8881614 5.99082913,71.460048 C5.9956728,70.0319262 6.00051647,68.6038044 6.00536014,67.1756826 C6.0069747,66.6587155 5.18677986,66.6570999 5.18516531,67.1756826 C5.18193619,68.2661602 5.17870708,69.3550223 5.17386341,70.4438844 C3.68039841,69.9769984 2.52276121,69.6635871 1.3731968,71.0965555 C0.407691853,72.3001196 -0.0702169483,73.8720229 0.068634933,75.3986916 C0.186497577,76.7024181 0.859767746,77.2226164 2.03355051,76.4132396 C3.23155163,75.5877077 4.23903504,74.5311561 5.16417607,73.4180611 C5.16256151,73.7476277 5.16094695,74.0755787 5.16094695,74.4035298 C5.15771784,75.1999823 5.15125961,76.6862629 6.3767082,76.1095214 C6.85300244,75.8865793 6.4364468,75.1919047 5.96338166,75.4148468 M3.00389912,74.5602355 C2.57119791,74.9689626 2.11427835,75.3825364 1.62022398,75.718565 C0.830705724,76.2533029 0.864611416,75.4778522 0.866225973,74.8639537 C0.867840529,73.8057865 1.19559555,72.7492349 1.80428345,71.8736217 C2.72135169,70.5553555 3.9048218,70.8946152 5.1706343,71.2888026 C5.1706343,71.568288 5.16901974,71.8477734 5.16740518,72.1272587 C4.49897868,72.9818701 3.79503194,73.8106331 3.00389912,74.5602355" id="Fill-21" fill="#231F20"></path>
                            <path d="M11.6049659,74.8114492 C11.0608603,75.7678384 9.31713897,77.071565 8.8602194,75.4124235 C8.73266942,74.943922 8.69069094,74.402722 8.70683651,73.8679841 C10.0808243,73.6918922 12.3121418,72.7096546 12.1539152,71.1732928 C11.9698557,69.3574456 9.33974276,70.2298277 8.62287956,71.115134 C7.65091639,72.3203137 7.61862526,74.8760701 8.28866631,76.2298779 C9.23802569,78.1523495 11.5823621,76.4996701 12.3137563,75.2169453 C12.5704708,74.764599 11.863295,74.3591029 11.6049659,74.8114492 M9.90483763,71.1086719 C10.384361,70.8534193 11.5048634,70.6983292 11.2384615,71.5642492 C10.9882052,72.3817035 9.69010158,72.9019017 8.78594979,73.0489143 C8.81016814,72.887362 8.83277194,72.7225787 8.86990674,72.5739507 C9.02328964,71.9293573 9.27193138,71.4463161 9.90483763,71.1086719" id="Fill-23" fill="#231F20"></path>
                            <path d="M77.5931923,74.8114492 C77.0474721,75.7678384 75.3053654,77.071565 74.8484458,75.4124235 C74.7208959,74.943922 74.6789174,74.402722 74.6950629,73.8679841 C76.0690507,73.6918922 78.2987536,72.7096546 78.1421416,71.1732928 C77.9580822,69.3574456 75.3263546,70.2298277 74.611106,71.115134 C73.6375283,72.3203137 73.6068517,74.8760701 74.2752782,76.2298779 C75.2262521,78.1523495 77.5705885,76.4996701 78.3003682,75.2169453 C78.5586973,74.764599 77.8499069,74.3591029 77.5931923,74.8114492 M75.8930641,71.1086719 C76.3709729,70.8534193 77.4930898,70.6983292 77.2266879,71.5642492 C76.9748171,72.3817035 75.678328,72.9019017 74.7725617,73.0489143 C74.7983946,72.887362 74.8209984,72.7225787 74.8565186,72.5739507 C75.0115161,71.9293573 75.2601578,71.4463161 75.8930641,71.1086719" id="Fill-25" fill="#231F20"></path>
                            <path d="M92.3794646,74.8114492 C91.8337444,75.7678384 90.0916377,77.071565 89.6347181,75.4124235 C89.5071681,74.943922 89.4651896,74.402722 89.4813352,73.8679841 C90.855323,73.6918922 93.0866405,72.7096546 92.9284139,71.1732928 C92.7443544,69.3574456 90.1142415,70.2298277 89.3973783,71.115134 C88.4238005,72.3203137 88.393124,74.8760701 89.0615505,76.2298779 C90.0125244,78.1523495 92.3568608,76.4996701 93.088255,75.2169453 C93.3449695,74.764599 92.6377937,74.3591029 92.3794646,74.8114492 M90.6793363,71.1086719 C91.1588597,70.8534193 92.2793621,70.6983292 92.0129602,71.5642492 C91.7627039,72.3817035 90.4646003,72.9019017 89.5588339,73.0489143 C89.5846668,72.887362 89.6072706,72.7225787 89.6444054,72.5739507 C89.7977883,71.9293573 90.0464301,71.4463161 90.6793363,71.1086719" id="Fill-27" fill="#231F20"></path>
                            <path d="M16.4336208,73.4088527 C15.8297766,73.143907 15.0790077,73.2246831 14.6075571,72.7190246 C14.0166293,72.0825088 14.2798021,71.2424371 15.0677058,70.9564897 C15.514938,70.7949374 16.1494588,70.8950998 16.6015347,70.9581052 C17.1181929,71.0308037 17.3410017,70.255353 16.8194999,70.1826544 C15.8992025,70.0550282 14.7431799,69.930633 14.0053274,70.6220765 C13.3029952,71.2795941 13.2852351,72.45731 13.8826211,73.177833 C14.6527647,74.1051428 16.0299816,73.7416503 16.8033543,74.6172634 C18.1515092,76.1439321 14.3524571,76.35395 13.5322623,75.6172718 C13.1431541,75.2683189 12.5602991,75.8369828 12.9510219,76.1859356 C13.6598123,76.8208359 15.2889001,76.9242294 16.1575316,76.8127583 C17.0148612,76.7029028 17.7640156,76.208553 17.8996383,75.3216312 C18.0401048,74.3943213 17.2150663,73.7513434 16.4336208,73.4088527" id="Fill-29" fill="#231F20"></path>
                            <path d="M42.4832025,73.4088527 C41.8793583,73.143907 41.1285894,73.2246831 40.6571388,72.7190246 C40.066211,72.0825088 40.3293838,71.2424371 41.118902,70.9564897 C41.5645197,70.7949374 42.200655,70.8950998 42.6511164,70.9581052 C43.1677745,71.0308037 43.3905834,70.255353 42.8690815,70.1826544 C41.9487842,70.0550282 40.7943761,69.930633 40.0549091,70.6220765 C39.3525769,71.2795941 39.3348168,72.45731 39.9322028,73.177833 C40.7039609,74.1051428 42.0795633,73.7416503 42.852936,74.6172634 C44.2010909,76.1439321 40.4020388,76.35395 39.5802294,75.6172718 C39.1927358,75.2683189 38.6114954,75.8369828 39.0006035,76.1859356 C39.709394,76.8208359 41.3384817,76.9242294 42.2071133,76.8127583 C43.0644429,76.7029028 43.8152118,76.208553 43.94922,75.3216312 C44.0896865,74.3943213 43.2662625,73.7513434 42.4832025,73.4088527" id="Fill-31" fill="#231F20"></path>
                            <path d="M20.9902229,74.6649213 C20.9078805,74.8846324 20.1942464,76.0316533 19.8019091,75.7747852 C19.5258199,75.5922312 19.5968604,74.6067625 19.5904022,74.354741 C19.5613402,73.093018 19.7034211,71.8151398 20.0198743,70.5921894 C20.1506534,70.0897619 19.3611351,69.876513 19.230356,70.3773249 C18.9526523,71.4484162 18.8105713,72.5582801 18.775051,73.6616819 C18.7524472,74.3741273 18.6636466,75.4177547 19.0382238,76.0736568 C19.3078547,76.5437739 19.7163376,76.587393 20.2346103,76.4694598 C21.0725653,76.2788282 21.4988083,75.6326192 21.7813557,74.8797858 C21.9638006,74.391898 21.1710532,74.1818801 20.9902229,74.6649213" id="Fill-33" fill="#231F20"></path>
                            <path d="M19.6609583,68.0608273 C19.8401741,67.7264142 20.0419937,67.4436978 20.306781,67.169059 C20.6716708,66.7926423 20.092045,66.2223629 19.7287697,66.5987796 C19.4171602,66.9202685 19.1620603,67.2627593 18.9537824,67.6553312 C18.7067553,68.1125241 19.4155457,68.5196357 19.6609583,68.0608273" id="Fill-35" fill="#231F20"></path>
                            <path d="M108.320468,74.6649213 C108.238125,74.8846324 107.524491,76.0316533 107.13054,75.7747852 C106.85445,75.5922312 106.927105,74.6067625 106.920647,74.354741 C106.889971,73.093018 107.033666,71.8151398 107.350119,70.5921894 C107.480898,70.0897619 106.689766,69.876513 106.558986,70.3773249 C106.282897,71.4484162 106.139202,72.5582801 106.105296,73.6616819 C106.082692,74.3741273 105.993892,75.4177547 106.368469,76.0736568 C106.6381,76.5437739 107.046583,76.587393 107.563241,76.4694598 C108.40281,76.2788282 108.829053,75.6326192 109.109986,74.8797858 C109.292431,74.391898 108.501298,74.1818801 108.320468,74.6649213" id="Fill-37" fill="#231F20"></path>
                            <path d="M109.523474,68.0608273 C109.70269,67.7264142 109.904509,67.4436978 110.170911,67.169059 C110.534187,66.7926423 109.954561,66.2223629 109.591285,66.5987796 C109.279676,66.9202685 109.026191,67.2627593 108.816298,67.6553312 C108.570886,68.1125241 109.278061,68.5196357 109.523474,68.0608273" id="Fill-39" fill="#231F20"></path>
                            <path d="M117.969221,74.6649213 C117.886878,74.8846324 117.173244,76.0316533 116.779292,75.7747852 C116.503203,75.5922312 116.574243,74.6067625 116.5694,74.354741 C116.538723,73.093018 116.682419,71.8151398 116.998872,70.5921894 C117.129651,70.0897619 116.338518,69.876513 116.209354,70.3773249 C115.930035,71.4484162 115.787954,72.5582801 115.754049,73.6616819 C115.731445,74.3741273 115.642644,75.4177547 116.017221,76.0736568 C116.286852,76.5437739 116.695335,76.587393 117.211993,76.4694598 C118.051563,76.2788282 118.477806,75.6326192 118.758739,74.8797858 C118.941184,74.391898 118.150051,74.1818801 117.969221,74.6649213" id="Fill-41" fill="#231F20"></path>
                            <path d="M119.172227,68.0608273 C119.351443,67.7264142 119.553262,67.4436978 119.819664,67.169059 C120.182939,66.7926423 119.603313,66.2223629 119.240038,66.5987796 C118.930043,66.9202685 118.674943,67.2627593 118.465051,67.6553312 C118.219638,68.1125241 118.926814,68.5196357 119.172227,68.0608273" id="Fill-43" fill="#231F20"></path>
                            <path d="M28.3114305,69.9999389 C28.3114305,69.9983233 28.309816,69.9983233 28.3082014,69.9967078 C28.2775248,69.9643974 28.2436191,69.938549 28.2080989,69.9207783 C28.1854951,69.9078541 28.1596622,69.901392 28.1338293,69.8933144 C28.1160691,69.8884678 28.0999236,69.8852368 28.0821635,69.8820057 C28.0595597,69.8787747 28.040185,69.8690816 28.0143521,69.867466 C26.2464124,69.8319245 24.3848285,70.3278899 23.2707843,71.7689359 C22.295592,73.0306589 21.6465402,75.6881932 23.5404153,76.5347269 C25.0193493,77.1938601 26.7356231,75.8448989 27.3749876,74.6138708 C27.6978989,73.9918947 27.9207078,73.3069132 28.0821635,72.604161 C28.2420046,73.9676619 28.2161717,75.3780129 28.1079964,76.6882016 C28.0531014,77.3457192 27.9804464,78.0436248 27.6559205,78.6332905 C26.9826503,79.862703 23.9569709,80.5913036 24.0328551,78.5218195 C24.0522298,78.0032368 23.2320349,78.0032368 23.2142748,78.5218195 C23.1593799,79.9951759 24.5107639,80.7334696 25.8847517,80.6123054 C27.1053566,80.5040654 28.0579451,79.7996977 28.5261666,78.6979114 C28.9847007,77.620358 28.979857,76.3392487 28.9830861,75.1954589 C28.9911589,73.5314708 28.9201184,71.7624738 28.4099185,70.1631066 C28.3873147,70.0936392 28.353409,70.043558 28.3114305,69.9999389 M25.1662739,75.6704224 C23.9117633,76.2520105 23.0366736,75.3004678 23.1690672,74.0662087 C23.2594824,73.2051353 23.7293184,72.3408308 24.3815994,71.7657048 C25.2566891,70.9918696 26.41917,70.7123842 27.5671199,70.6752272 C27.387904,72.5039986 26.9648902,74.8384284 25.1662739,75.6704224" id="Fill-45" fill="#231F20"></path>
                            <path d="M132.943912,70.1631066 C132.921308,70.0952547 132.885788,70.043558 132.845424,69.9999389 C132.843809,69.9983233 132.843809,69.9983233 132.842194,69.9967078 C132.811518,69.9643974 132.777612,69.938549 132.740477,69.9207783 C132.717874,69.9078541 132.692041,69.901392 132.667822,69.8933144 C132.650062,69.8884678 132.633917,69.8852368 132.616157,69.8820057 C132.593553,69.8787747 132.574178,69.8690816 132.548345,69.867466 C130.780405,69.8319245 128.918822,70.3278899 127.804777,71.7689359 C126.829585,73.0306589 126.178919,75.6881932 128.074408,76.5347269 C129.553342,77.1938601 131.269616,75.8448989 131.908981,74.6138708 C132.231892,73.9918947 132.454701,73.3069132 132.616157,72.604161 C132.774383,73.9676619 132.750165,75.3780129 132.641989,76.6882016 C132.587095,77.3457192 132.514439,78.0436248 132.189914,78.6332905 C131.516643,79.862703 128.490964,80.5913036 128.566848,78.5218195 C128.586223,78.0032368 127.766028,78.0032368 127.748268,78.5218195 C127.693373,79.9951759 129.044757,80.7334696 130.418745,80.6123054 C131.637735,80.5040654 132.591938,79.7996977 133.06016,78.6979114 C133.518694,77.620358 133.512236,76.3392487 133.518694,75.1954589 C133.523537,73.5314708 133.452497,71.7624738 132.943912,70.1631066 M129.700267,75.6704224 C128.445756,76.2520105 127.570667,75.3004678 127.701446,74.0662087 C127.793475,73.2051353 128.261697,72.3408308 128.915592,71.7657048 C129.790682,70.9918696 130.951549,70.7123842 132.101113,70.6752272 C131.920283,72.5039986 131.498883,74.8384284 129.700267,75.6704224" id="Fill-47" fill="#231F20"></path>
                            <path d="M38.2601678,73.3471397 C38.0648064,73.8867242 37.2720591,75.3358478 36.5842579,75.3600806 C36.4647807,75.3633116 36.1838478,74.628249 36.0643706,74.3019134 C35.662346,73.2130513 35.3684967,72.0821857 35.0988657,70.9577821 C35.0407416,70.7122227 34.7146012,70.5781343 34.4982506,70.7170693 C33.229209,71.5329081 31.9989167,73.0385749 31.1545035,74.5474728 C31.1545035,73.4166072 31.1512744,72.2857415 31.1625763,71.1548758 C31.16742,70.6362931 30.3488397,70.6362931 30.343996,71.1548758 C30.3262359,72.9141797 30.3213922,74.6750991 30.3310796,76.434403 C30.3326941,76.8980579 30.9914333,76.9659099 31.1351288,76.5410275 C31.6711617,74.952969 33.0290039,72.8802537 34.4562721,71.7445415 C34.653248,72.5264543 34.864755,73.3051361 35.1198549,74.0708937 C35.3055289,74.6266334 35.5412542,75.6815696 36.0675997,76.0531397 C37.228466,76.8738251 38.7574513,74.3665343 39.0496861,73.5603887 C39.2272873,73.0725009 38.4361545,72.8608675 38.2601678,73.3471397" id="Fill-49" fill="#231F20"></path>
                            <path d="M126.983452,73.3471397 C126.788091,73.8867242 125.995344,75.3358478 125.307542,75.3600806 C125.188065,75.3633116 124.907132,74.628249 124.787655,74.3019134 C124.385631,73.2130513 124.091781,72.0821857 123.82215,70.9577821 C123.764026,70.7122227 123.437886,70.5781343 123.221535,70.7170693 C121.952493,71.5329081 120.722201,73.0385749 119.877788,74.5474728 C119.877788,73.4166072 119.874559,72.2857415 119.885861,71.1548758 C119.890705,70.6362931 119.07051,70.6362931 119.067281,71.1548758 C119.04952,72.9141797 119.044677,74.6750991 119.054364,76.434403 C119.055979,76.8980579 119.714718,76.9659099 119.858413,76.5410275 C120.394446,74.952969 121.752288,72.8802537 123.179557,71.7445415 C123.376533,72.5264543 123.588039,73.3051361 123.843139,74.0708937 C124.027199,74.6266334 124.264539,75.6815696 124.790884,76.0531397 C125.951751,76.8738251 127.480736,74.3665343 127.772971,73.5603887 C127.950572,73.0725009 127.159439,72.8608675 126.983452,73.3471397" id="Fill-51" fill="#231F20"></path>
                            <g id="Group-55" transform="translate(47.210140, 65.844776)">
                                <mask id="mask-4" fill="white">
                                    <use xlink:href="#path-3"></use>
                                </mask>
                                <g id="Clip-54"></g>
                                <path d="M6.02714039,1.929296 C5.91573597,2.43495451 6.70525423,2.64981899 6.8182732,2.14254496 C7.06691494,1.00521719 6.44531059,0.139297194 5.18595631,0.409089433 C3.49551539,0.767735403 3.05312683,2.69343809 2.79479775,4.11832884 C2.68823701,4.70314794 2.62042562,5.29766018 2.56714525,5.89863451 C2.01012317,5.92932943 1.45310108,5.97617958 0.892849888,6.04403152 C0.377806282,6.10865242 0.371348055,6.91479809 0.892849888,6.85017719 C1.43049729,6.78394078 1.96653013,6.73870615 2.50256298,6.70801122 C2.35725287,9.30900227 2.57683259,11.9972315 2.57844715,14.5432948 C2.57844715,15.060262 3.39864198,15.0618775 3.39864198,14.5432948 C3.39702742,12.0150023 3.36473629,9.48509421 3.41155843,6.95841719 C3.41317299,6.86310137 3.41478755,6.76778555 3.4164021,6.67246973 C3.91852926,6.6627766 4.42227097,6.66439212 4.92924179,6.691856 C5.45558729,6.71770436 5.45397274,5.91317421 4.92924179,5.88571033 C4.42872919,5.86147749 3.93306027,5.85824645 3.4390059,5.86793958 C3.45838058,5.35258794 3.49551539,4.84046734 3.58431601,4.33157779 C3.70379321,3.65628943 3.83457231,2.91638018 4.14295265,2.29601958 C4.32701212,1.92768048 4.57242474,1.55611033 4.94538736,1.34770794 C5.48949298,1.04398973 6.19182518,1.18130913 6.02714039,1.929296" id="Fill-53" fill="#231F20" mask="url(#mask-4)"></path>
                            </g>
                            <path d="M56.0340159,70.2766779 C56.0210995,70.2734468 56.0097976,70.2782934 55.9968811,70.2766779 C55.9726628,70.2718313 55.9516735,70.2621381 55.9258406,70.2621381 C52.9792745,70.252445 50.4282748,77.1281083 54.01582,76.8970886 C55.5367324,76.8001573 56.9317095,75.6951399 57.472586,74.3219459 C58.0231498,72.9293656 57.8374758,70.6272462 56.0340159,70.2766779 M56.6136418,74.257325 C56.1857842,75.1474779 55.2848616,75.8486146 54.3015965,76.0473238 C52.7903714,76.3526576 53.0164093,74.8227579 53.3231751,73.8082098 C53.6654611,72.6821907 54.5357072,71.1038253 55.8774039,71.0698993 C57.2045696,71.3897728 57.0673322,73.3154755 56.6136418,74.257325" id="Fill-56" fill="#231F20"></path>
                            <path d="M63.0699314,70.3757094 C61.4682911,70.6891207 60.4252874,71.9379195 59.7762356,73.3983518 C59.7778501,72.5405094 59.7794647,71.6810515 59.7810792,70.8232091 C59.7810792,70.3046264 58.9608844,70.3046264 58.9608844,70.8232091 C58.9576553,72.6810598 58.9544262,74.5405261 58.9511971,76.3983768 C58.9495825,76.9331147 59.7035805,76.8943422 59.7697773,76.3983768 C60.0426374,74.3870515 61.0404335,71.5921977 63.2878965,71.1511601 C63.8045547,71.0509977 63.5865895,70.2739315 63.0699314,70.3757094" id="Fill-58" fill="#231F20"></path>
                            <path d="M98.3250699,70.5165829 C96.7234296,70.8299943 95.6804259,72.0787931 95.0297595,73.5392253 C95.0329886,72.6813829 95.0329886,71.821925 95.0362177,70.9640826 C95.0362177,70.4454999 94.2160229,70.4454999 94.2160229,70.9640826 C94.2127938,72.8219334 94.2095647,74.6813996 94.2063356,76.5392504 C94.204721,77.0739883 94.9571045,77.0352158 95.0249158,76.5392504 C95.2977759,74.527925 96.295572,71.7330713 98.543035,71.2920337 C99.0596932,71.1918713 98.8401135,70.414805 98.3250699,70.5165829" id="Fill-60" fill="#231F20"></path>
                            <path d="M68.3408134,71.784768 C68.3682608,70.2047871 68.4538323,68.6248062 68.4861235,67.0448253 C68.4958108,66.5262426 67.675616,66.5262426 67.6659286,67.0448253 C67.6110337,69.7863668 67.2445293,72.6280707 67.646554,75.3550725 C67.7353546,75.9528158 67.8483735,76.7783477 68.5119564,77.0190605 C69.4887632,77.3744755 70.9031149,76.6507214 71.5279484,75.9576623 C72.2851755,75.1208217 72.6274616,74.0981961 72.7517824,73.0028719 C72.8534995,72.0965638 72.9729767,70.5165829 72.2819464,69.7637495 C71.2114953,68.5989579 69.4144936,70.3550307 68.3408134,71.784768 M69.5016797,76.1692958 C68.8897627,76.2856134 68.815493,76.3163083 68.5765386,75.8510379 C68.4393013,75.5844767 68.4409159,75.1692874 68.4102393,74.8833399 C68.3553444,74.3534486 68.3359697,73.8203262 68.331126,73.2855883 C68.742838,72.4842892 69.340224,71.7718438 70.0134942,71.1676384 C70.3089581,70.9010773 70.7771795,70.3824946 71.1953497,70.3275668 C71.7765901,70.2500217 71.8557034,70.7072146 71.9283585,71.1918713 C72.2076768,73.0545686 71.7103933,75.7476444 69.5016797,76.1692958" id="Fill-62" fill="#231F20"></path>
                            <path d="M82.6641922,74.7221108 C82.3606555,76.1857741 80.8639614,77.0258457 80.4667805,75.1938433 C80.253659,74.2212989 80.3198558,73.0936642 80.3424596,72.1049645 C80.3456887,71.9256416 80.3602197,71.7463186 80.3666779,71.5653801 C80.8284412,71.5411472 81.291819,71.5524559 81.7212911,71.5944595 C82.246022,71.6461562 82.2411783,70.841626 81.7212911,70.7899293 C81.3031209,70.7479257 80.8542741,70.7414636 80.4038127,70.7608499 C80.439333,70.1566445 80.4861551,69.5508236 80.5475083,68.9466183 C80.6007887,68.4328821 79.7805938,68.4361132 79.728928,68.9466183 C79.6643457,69.576672 79.6175236,70.2067257 79.5803888,70.8367795 C79.259092,70.8836296 78.945868,70.9417884 78.6520187,71.0274111 C78.1482769,71.1760392 78.363013,71.9531054 78.8699838,71.8044774 C79.0831053,71.7398565 79.3091433,71.6913908 79.5400249,71.6526183 C79.5367958,71.7350099 79.5303375,71.815786 79.5271084,71.8981777 C79.4899736,73.1905956 79.3204452,74.9030493 79.8936128,76.1146911 C80.9237,78.2924153 83.1065808,76.6171186 83.455325,74.9353598 C83.5602712,74.4297013 82.7691384,74.2148368 82.6641922,74.7221108" id="Fill-64" fill="#231F20"></path>
                            <path d="M87.1420039,74.7221108 C86.8384673,76.1857741 85.3417731,77.0258457 84.9445922,75.1938433 C84.7330852,74.2212989 84.7976675,73.0936642 84.8202713,72.1049645 C84.825115,71.9256416 84.8380314,71.7463186 84.8444897,71.5653801 C85.3062529,71.5411472 85.7712452,71.5524559 86.1991028,71.5944595 C86.7238337,71.6461562 86.7206046,70.841626 86.1991028,70.7899293 C85.7825471,70.7479257 85.3320858,70.7414636 84.8816245,70.7608499 C84.9171447,70.1566445 84.9639669,69.5508236 85.0269346,68.9466183 C85.0786004,68.4328821 84.2600201,68.4361132 84.2067397,68.9466183 C84.1421575,69.576672 84.0953353,70.2067257 84.0582005,70.8367795 C83.7369037,70.8836296 83.4236797,70.9417884 83.1298304,71.0274111 C82.6260887,71.1760392 82.8408247,71.9531054 83.3477955,71.8044774 C83.5625316,71.7398565 83.786955,71.6913908 84.0178366,71.6526183 C84.0146075,71.7350099 84.0081493,71.815786 84.0049201,71.8981777 C83.9693999,73.1905956 83.7982569,74.9030493 84.3714245,76.1146911 C85.4015117,78.2924153 87.5843925,76.6171186 87.9331367,74.9353598 C88.0364684,74.4297013 87.2485647,74.2148368 87.1420039,74.7221108" id="Fill-66" fill="#231F20"></path>
                            <path d="M104.364158,74.7221108 C104.231764,75.3957836 103.292092,76.7398983 102.783507,75.5944929 C102.62528,75.242309 102.634968,74.7285729 102.620437,74.3521562 C102.575229,73.256832 102.728612,72.137275 102.836787,71.0500284 C102.962723,69.7834589 103.125793,68.5217359 103.282405,67.2583974 C103.346987,66.7446613 102.525178,66.7495078 102.463825,67.2583974 C102.333046,68.2971783 102.197423,69.3359592 102.086018,70.3779711 C101.911646,72.032266 101.559673,73.872346 101.922948,75.5250254 C102.437992,77.8707639 104.788786,76.7996726 105.155291,74.9353598 C105.253779,74.4297013 104.46426,74.2132213 104.364158,74.7221108" id="Fill-68" fill="#231F20"></path>
                            <path d="M115.112424,69.6706954 C113.627032,71.3556853 112.480696,73.2361533 111.673418,75.2943288 C111.171291,73.683653 110.341409,72.2070656 109.472777,70.7353247 C109.209604,70.287825 108.500814,70.6917056 108.765601,71.1424363 C109.826365,72.9405127 110.837077,74.7402047 111.211655,76.8096888 C111.287539,77.221647 111.892998,77.1634882 112.002787,76.8096888 C112.761629,74.3621724 113.985463,72.1747551 115.69205,70.2393593 C116.03595,69.8500184 115.459553,69.2781235 115.112424,69.6706954" id="Fill-70" fill="#231F20"></path>
                            <g id="Group-74" transform="translate(48.436703, 0.000000)">
                                <mask id="mask-6" fill="white">
                                    <use xlink:href="#path-5"></use>
                                </mask>
                                <g id="Clip-73"></g>
                                <path d="M23.5032805,1.26333851 C13.9370317,-1.23749015 3.60871209,3.91925731 0.637927647,13.5493863 C0.552356138,13.8272561 0.377984008,14.5251618 0.205226435,15.2020657 L11.1680668,23.2990639 C9.35007592,14.0243499 14.6490512,5.21975284 23.5032805,1.26333851" id="Fill-72" fill="#006FB9" mask="url(#mask-6)"></path>
                            </g>
                            <path d="M48.78288,23.2504367 C51.3597126,32.6366217 61.0728861,38.8402277 71.0508469,36.5510325 C71.338238,36.4847961 72.0421847,36.2844713 72.7251422,36.0938396 L74.3849066,22.7205453 C67.1145575,28.9063805 56.6990518,28.7997561 48.78288,23.2504367" id="Fill-75" fill="#006FB9"></path>
                            <path d="M79.7525005,31.9490554 C86.7419168,25.063699 87.3570629,13.7033456 80.3498865,6.36241182 C80.1480669,6.15077839 79.6201069,5.65319749 79.109907,5.16854078 L66.4856876,10.4416059 C75.5756422,13.5321002 80.6889435,22.4417061 79.7525005,31.9490554" id="Fill-77" fill="#006FB9"></path>
                        </g>
                    </g>
                </g>
            </g>
        </g>
    </g>
</svg>