<?xml version="1.0" encoding="UTF-8"?>
<svg width="128px" height="21px" viewBox="0 0 128 21" version="1.1" xmlns="http://www.w3.org/2000/svg" xmlns:xlink="http://www.w3.org/1999/xlink">
    <!-- Generator: Sketch 52.2 (67145) - http://www.bohemiancoding.com/sketch -->
    <title>Group 22</title>
    <desc>Created with Sketch.</desc>
    <defs>
        <polygon id="path-1" points="0 0.523 14.146 0.523 14.146 21 0 21"></polygon>
        <polygon id="path-3" points="0.4639 0.9382 11.3579 0.9382 11.3579 14 0.4639 14"></polygon>
        <polygon id="path-5" points="0.5062 0.8239 15.85 0.8239 15.85 13.6869 0.5062 13.6869"></polygon>
    </defs>
    <g id="Desktop-Ver2.0" stroke="none" stroke-width="1" fill="none" fill-rule="evenodd">
        <g id="01_Home_Landing" transform="translate(-1081.000000, -5042.000000)">
            <g id="Group-17" transform="translate(231.000000, 4781.000000)">
                <g id="Group-11" transform="translate(0.000000, 220.000000)">
                    <g id="Group-22" transform="translate(850.000000, 40.000000)">
                        <g id="Group-3" transform="translate(0.000000, 0.477500)">
                            <mask id="mask-2" fill="white">
                                <use xlink:href="#path-1"></use>
                            </mask>
                            <g id="Clip-2"></g>
                            <path d="M14.146,20.088 C14.146,20.22 13.956,20.287 13.575,20.287 L12.292,20.287 C11.36,20.267 10.38,20.487 9.354,20.944 C9.24,20.981 9.173,21 9.155,21 C8.983,21 8.888,20.828 8.869,20.487 C8.869,20.315 8.84,20.076 8.784,19.772 C8.023,20.591 7.016,21 5.761,21 C4.087,21 2.71,20.383 1.626,19.146 C0.542,17.911 0,16.342 0,14.441 C0,12.501 0.551,10.936 1.654,9.748 C2.756,8.56 4.211,7.966 6.017,7.966 C7.196,7.966 8.157,8.404 8.898,9.277 L8.898,5.285 C8.898,3.574 8.822,2.563 8.67,2.247 C8.518,1.934 8.014,1.788 7.158,1.806 C6.663,1.806 6.416,1.739 6.416,1.606 C6.416,1.474 6.531,1.407 6.762,1.407 C8.509,1.407 10.178,1.149 11.771,0.636 C12,0.56 12.164,0.522 12.26,0.522 C12.471,0.522 12.577,0.75 12.577,1.207 L12.577,2.632 L12.577,5.371 L12.577,18.974 C12.577,19.299 12.625,19.517 12.72,19.631 C12.852,19.802 13.185,19.877 13.718,19.858 C14.003,19.84 14.146,19.916 14.146,20.088 M8.898,17.521 L8.898,11.303 C8.898,10.447 8.755,9.811 8.468,9.393 C8.104,8.859 7.598,8.592 6.947,8.592 C5.111,8.592 4.192,10.618 4.192,14.669 C4.192,16.474 4.426,17.871 4.895,18.86 C5.364,19.849 6.019,20.343 6.861,20.343 C7.357,20.343 7.822,20.12 8.252,19.673 C8.683,19.227 8.898,18.51 8.898,17.521" id="Fill-1" fill="#231F20" mask="url(#mask-2)"></path>
                        </g>
                        <path d="M26.4086,17.6271 C26.4086,18.0451 26.1616,18.5971 25.6676,19.2821 C24.6016,20.7441 23.2136,21.4771 21.5036,21.4771 C19.5826,21.4771 18.0046,20.8691 16.7686,19.6511 C15.5326,18.4351 14.9156,16.8751 14.9156,14.9741 C14.9156,13.1101 15.5146,11.5581 16.7116,10.3111 C17.9096,9.0681 19.4016,8.4431 21.1896,8.4431 C22.4066,8.4431 23.4426,8.7101 24.2976,9.2421 C25.2486,9.8311 25.8666,10.6781 26.1526,11.7811 C26.2276,12.1221 26.2846,12.5331 26.3226,13.0061 C25.8856,13.0571 24.1276,13.0971 21.0476,13.1201 C20.5716,13.1201 19.9726,13.1411 19.2496,13.1781 C19.1926,13.8601 19.1646,14.4381 19.1646,14.9091 C19.1646,17.1261 19.6306,18.6991 20.5626,19.6251 C21.1136,20.1751 21.7886,20.4491 22.5876,20.4491 C23.2526,20.4491 23.8936,20.2221 24.5126,19.7651 C25.1296,19.3101 25.5996,18.7201 25.9236,17.9981 C26.0756,17.6361 26.1986,17.4551 26.2946,17.4551 C26.3706,17.4551 26.4086,17.5131 26.4086,17.6271 Z M22.8146,12.6351 C22.8346,11.1821 22.7296,10.1721 22.5016,9.6061 C22.2726,9.0401 21.8736,8.7561 21.3036,8.7561 C20.1436,8.7561 19.4786,10.0491 19.3076,12.6351 L21.8166,12.6351 L22.8146,12.6351 Z" id="Fill-4" fill="#231F20"></path>
                        <g id="Group-8" transform="translate(27.000000, 7.477500)">
                            <mask id="mask-4" fill="white">
                                <use xlink:href="#path-3"></use>
                            </mask>
                            <g id="Clip-7"></g>
                            <path d="M11.3579,3.8762 C11.3579,4.3312 11.2239,4.7022 10.9589,4.9882 C10.6919,5.2732 10.3489,5.4152 9.9319,5.4152 C8.9229,5.4152 8.4209,4.9692 8.4209,4.0762 C8.4209,3.8462 8.4819,3.5742 8.6049,3.2612 C8.7289,2.9482 8.7909,2.7252 8.7909,2.5932 C8.7909,2.2302 8.6529,1.9222 8.3779,1.6642 C8.1019,1.4092 7.7639,1.2792 7.3649,1.2792 C5.6349,1.2792 4.7699,3.2102 4.7699,7.0702 C4.7699,9.2752 5.1499,10.8532 5.9109,11.8042 C6.4989,12.5262 7.2219,12.8882 8.0779,12.8882 C8.9719,12.8882 9.8839,12.3082 10.8159,11.1482 C10.9299,10.9942 11.0339,10.9202 11.1289,10.9202 C11.2059,10.9202 11.2439,10.9762 11.2439,11.0892 C11.2439,11.4512 10.9019,11.9552 10.2169,12.6032 C9.2279,13.5332 8.0399,14.0002 6.6519,14.0002 C4.9409,14.0002 3.4819,13.3872 2.2739,12.1592 C1.0669,10.9342 0.4639,9.4462 0.4639,7.6962 C0.4639,5.7952 1.1009,4.1942 2.3739,2.8922 C3.6479,1.5902 5.2169,0.9382 7.0789,0.9382 C8.2779,0.9382 9.2899,1.2232 10.1169,1.7922 C10.9449,2.3632 11.3579,3.0572 11.3579,3.8762" id="Fill-6" fill="#231F20" mask="url(#mask-4)"></path>
                        </g>
                        <path d="M51.6196,19.5976 C51.6196,19.7506 51.4676,19.9646 51.1636,20.2336 C50.3456,20.9876 49.3386,21.3636 48.1406,21.3636 C47.3606,21.3636 46.7956,21.1996 46.4436,20.8716 C46.0916,20.5446 45.8596,19.9576 45.7456,19.1106 C44.8886,20.6696 43.7206,21.4476 42.2376,21.4476 C41.4196,21.4476 40.7586,21.1916 40.2556,20.6796 C39.7506,20.1636 39.4986,19.5006 39.4986,18.6836 C39.4986,16.2856 41.5526,14.8696 45.6596,14.4336 L45.6596,13.8346 C45.6596,11.9316 45.5926,10.7646 45.4596,10.3256 L45.4306,10.1836 C45.1656,9.2326 44.4896,8.7566 43.4056,8.7566 C42.7796,8.7566 42.2746,8.9376 41.8946,9.2996 C41.5146,9.6596 41.3236,10.0126 41.3236,10.3536 C41.3236,10.5436 41.5526,10.6596 42.0086,10.6966 C42.6936,10.7526 43.0356,11.1726 43.0356,11.9526 C43.0356,12.3706 42.8976,12.7156 42.6226,12.9926 C42.3466,13.2686 41.9896,13.4056 41.5526,13.4056 C41.0016,13.4056 40.5496,13.2406 40.1986,12.9066 C39.8456,12.5746 39.6706,12.1526 39.6706,11.6366 C39.6706,10.8196 40.0786,10.0796 40.8966,9.4136 C41.7136,8.7476 42.7886,8.4156 44.1196,8.4156 C46.0966,8.4156 47.4746,8.7686 48.2546,9.4686 C48.8816,10.0606 49.1956,11.0866 49.1956,12.5516 L49.1956,17.4276 C49.1956,18.3796 49.2046,18.9296 49.2246,19.0826 C49.3196,19.8806 49.5946,20.2796 50.0516,20.2796 C50.3746,20.2796 50.7736,20.0506 51.2496,19.5956 C51.3446,19.5006 51.4196,19.4516 51.4766,19.4516 C51.5716,19.4516 51.6196,19.5006 51.6196,19.5976 M45.6596,16.1996 L45.6596,14.8026 C43.8156,15.1646 42.8926,16.2116 42.8926,17.9406 C42.8926,19.2726 43.3486,19.9366 44.2626,19.9366 C44.7756,19.9366 45.1356,19.6506 45.3466,19.0826 C45.5546,18.5116 45.6596,17.5506 45.6596,16.1996" id="Fill-9" fill="#231F20"></path>
                        <path d="M73.9503,20.9901 C73.9503,21.1621 73.8073,21.2291 73.5223,21.1921 L73.0093,21.1921 L72.1813,21.1921 L70.1853,21.1921 L68.5893,21.1921 L68.1603,21.1921 L67.5333,21.1921 L67.1633,21.1921 C66.8963,21.1921 66.7633,21.1341 66.7633,21.0201 C66.7633,20.9231 66.9863,20.8671 67.4323,20.8461 C67.9933,20.8281 68.2743,20.6561 68.2743,20.3311 L68.2743,13.9231 C68.2743,11.9501 68.2073,10.7621 68.0733,10.3601 C67.8823,9.8051 67.4033,9.5271 66.6363,9.5271 C65.9273,9.5271 65.3723,9.8331 64.9693,10.4441 C64.7963,10.6921 64.7013,10.9711 64.6813,11.2751 C64.6433,11.6391 64.6253,12.6231 64.6253,14.2271 L64.6253,19.6721 C64.6253,20.2451 64.6773,20.5821 64.7813,20.6771 C64.8863,20.7721 65.2423,20.8181 65.8503,20.8181 C66.0223,20.8181 66.1083,20.8671 66.1083,20.9621 C66.1083,21.1151 66.0023,21.1921 65.7933,21.1921 C65.6033,21.1921 65.4513,21.1831 65.3373,21.1641 L59.8043,21.1061 C59.6333,21.1061 59.5483,21.0481 59.5483,20.9341 C59.5483,20.8211 59.7763,20.7631 60.2323,20.7631 C60.5753,20.7631 60.7743,20.7161 60.8313,20.6211 L60.8883,20.3331 L60.8883,13.3291 C60.8883,11.5391 60.7833,10.4551 60.5753,10.0841 C60.3653,9.7131 59.9373,9.5271 59.2913,9.5271 C58.5113,9.5271 57.9313,9.8521 57.5523,10.5021 C57.4183,10.7501 57.3373,11.0031 57.3093,11.2611 C57.2803,11.5211 57.2663,12.2701 57.2663,13.5121 L57.2663,19.1871 C57.2663,20.0661 57.3183,20.5491 57.4233,20.6351 C57.5273,20.7211 57.7883,20.7651 58.2073,20.7651 L58.6353,20.7651 C58.8253,20.7651 58.9203,20.8161 58.9203,20.9231 C58.9203,21.0461 58.8353,21.1061 58.6633,21.1061 L57.9793,21.1061 L56.7813,21.1061 C55.2603,21.1291 54.4523,21.1461 54.3573,21.1571 C53.4453,21.1801 52.7693,21.1921 52.3323,21.1921 L51.9333,21.1921 C51.6853,21.1921 51.5623,21.1151 51.5623,20.9641 C51.5623,20.8301 51.6483,20.7651 51.8193,20.7651 L52.4753,20.8791 C52.7983,20.8971 53.0643,20.8211 53.2733,20.6491 C53.4253,20.5141 53.5023,20.1131 53.5023,19.4441 L53.5023,14.7141 C53.5023,12.0571 53.4633,10.6321 53.3883,10.4411 C53.2353,10.2701 52.6463,10.1841 51.6193,10.1841 C51.3523,10.1841 51.2203,10.1161 51.2203,9.9841 C51.2203,9.8311 51.3433,9.7541 51.5903,9.7541 C53.4923,9.7171 55.1843,9.3001 56.6673,8.5011 C56.8383,8.4061 56.9623,8.3571 57.0383,8.3571 C57.1333,8.3571 57.1803,8.4341 57.1803,8.5871 C57.1803,8.8701 57.1713,9.1091 57.1523,9.3001 L57.1523,10.4971 C58.0253,9.0701 59.3153,8.3571 61.0233,8.3571 C62.9403,8.3571 64.0693,9.1371 64.4113,10.6971 C64.8473,9.8591 65.3783,9.2601 66.0043,8.8981 C66.6313,8.5381 67.4563,8.3571 68.4813,8.3571 C70.8913,8.3571 72.0973,9.6941 72.0973,12.3681 L72.0973,12.7971 L72.0973,13.3701 L72.0973,19.4171 C72.0973,20.0271 72.1203,20.3981 72.1683,20.5331 C72.2153,20.6651 72.3723,20.7441 72.6383,20.7631 C73.0183,20.8001 73.3613,20.8181 73.6653,20.8181 C73.8553,20.8181 73.9503,20.8761 73.9503,20.9901" id="Fill-11" fill="#231F20"></path>
                        <path d="M86.0992,17.6271 C86.0992,18.0451 85.8522,18.5971 85.3572,19.2821 C84.2922,20.7441 82.9042,21.4771 81.1942,21.4771 C79.2732,21.4771 77.6952,20.8691 76.4592,19.6511 C75.2232,18.4351 74.6062,16.8751 74.6062,14.9741 C74.6062,13.1101 75.2052,11.5581 76.4022,10.3111 C77.6002,9.0681 79.0922,8.4431 80.8802,8.4431 C82.0972,8.4431 83.1332,8.7101 83.9882,9.2421 C84.9382,9.8311 85.5572,10.6781 85.8432,11.7811 C85.9182,12.1221 85.9752,12.5331 86.0132,13.0061 C85.5762,13.0571 83.8182,13.0971 80.7382,13.1201 C80.2622,13.1201 79.6632,13.1411 78.9402,13.1781 C78.8832,13.8601 78.8552,14.4381 78.8552,14.9091 C78.8552,17.1261 79.3212,18.6991 80.2532,19.6251 C80.8042,20.1751 81.4792,20.4491 82.2782,20.4491 C82.9432,20.4491 83.5842,20.2221 84.2032,19.7651 C84.8202,19.3101 85.2902,18.7201 85.6142,17.9981 C85.7662,17.6361 85.8892,17.4551 85.9852,17.4551 C86.0612,17.4551 86.0992,17.5131 86.0992,17.6271 Z M82.5052,12.6351 C82.5252,11.1821 82.4202,10.1721 82.1922,9.6061 C81.9632,9.0401 81.5642,8.7561 80.9942,8.7561 C79.8342,8.7561 79.1692,10.0491 78.9982,12.6351 L81.5072,12.6351 L82.5052,12.6351 Z" id="Fill-13" fill="#231F20"></path>
                        <path d="M97.7062,10.5531 C97.7062,11.1051 97.5452,11.5581 97.2212,11.9081 C96.8972,12.2611 96.4792,12.4351 95.9662,12.4351 C94.9392,12.4351 94.4262,11.9621 94.4262,11.0101 C94.4262,10.6871 94.5502,10.3651 94.7972,10.0401 C94.8542,9.9661 94.8832,9.8981 94.8832,9.8411 C94.8832,9.6711 94.7612,9.5851 94.5172,9.5851 C93.8792,9.5851 93.3912,10.0861 93.0542,11.0911 C92.8662,11.6601 92.7722,13.0551 92.7722,15.2741 L92.7722,17.3511 L92.7722,19.8531 C92.7722,20.3661 93.0282,20.6401 93.5422,20.6791 C93.8462,20.6981 94.2072,20.7071 94.6262,20.7071 C94.8352,20.7251 94.9392,20.7931 94.9392,20.9061 C94.9392,21.0601 94.8542,21.1341 94.6832,21.1341 L94.1122,21.1341 L91.6312,21.1341 L90.3472,21.1341 L88.9502,21.1341 L87.8662,21.1341 L87.2112,21.1341 C87.0012,21.1341 86.8972,21.0741 86.8972,20.9481 C86.8972,20.8251 87.0302,20.7651 87.2972,20.7651 C88.0752,20.7441 88.5462,20.6651 88.7082,20.5211 C88.8692,20.3801 88.9502,19.9571 88.9502,19.2561 L88.9222,11.5761 C88.9222,10.9311 88.8322,10.4861 88.6512,10.2401 C88.4702,9.9941 88.0662,9.8411 87.4392,9.7851 C86.9442,9.7481 86.6642,9.7221 86.5982,9.7031 C86.5312,9.6851 86.4982,9.6251 86.4982,9.5151 C86.4982,9.4091 86.5742,9.3551 86.7262,9.3551 L87.2112,9.3551 L87.7812,9.3551 C89.2452,9.3551 90.8232,9.0511 92.5152,8.4431 C92.6102,8.8241 92.6582,9.2601 92.6582,9.7541 L92.6582,10.9521 C93.0192,10.0331 93.4132,9.3831 93.8422,9.0071 C94.2702,8.6311 94.8262,8.4431 95.5102,8.4431 C96.1562,8.4431 96.6842,8.6431 97.0932,9.0421 C97.5022,9.4411 97.7062,9.9451 97.7062,10.5531" id="Fill-15" fill="#231F20"></path>
                        <path d="M111.6526,15.0603 C111.6526,17.0953 110.8546,18.7393 109.2566,19.9943 C108.0016,20.9833 106.6226,21.4773 105.1216,21.4773 C103.3346,21.4773 101.7886,20.8343 100.4866,19.5513 C99.1846,18.2683 98.5336,16.7523 98.5336,15.0023 C98.5336,13.1783 99.1846,11.6233 100.4866,10.3393 C101.7886,9.0563 103.3626,8.4153 105.2076,8.4153 C106.9746,8.4153 108.4916,9.0673 109.7556,10.3693 C111.0206,11.6713 111.6526,13.2363 111.6526,15.0603 M107.3456,15.0883 C107.3456,12.7323 107.1846,11.1143 106.8646,10.2393 C106.5046,9.2693 105.9276,8.7863 105.1356,8.7863 C104.3986,8.7863 103.8216,9.2953 103.4066,10.3113 C102.9906,11.3283 102.7826,12.7323 102.7826,14.5173 C102.7826,17.0103 103.0276,18.7783 103.5196,19.8233 C103.9166,20.6603 104.4736,21.0783 105.1926,21.0783 C106.0796,21.0783 106.6656,20.5443 106.9496,19.4813 C107.2136,18.4723 107.3456,17.0103 107.3456,15.0883" id="Fill-17" fill="#231F20"></path>
                        <g id="Group-21" transform="translate(112.000000, 7.477500)">
                            <mask id="mask-6" fill="white">
                                <use xlink:href="#path-5"></use>
                            </mask>
                            <g id="Clip-20"></g>
                            <path d="M15.8502,13.4569 C15.8502,13.6099 15.6122,13.6869 15.1372,13.6869 L14.3962,13.6869 L12.4002,13.6869 L11.4872,13.6869 L9.0352,13.6869 C8.7682,13.6869 8.6352,13.6149 8.6352,13.4729 C8.6352,13.3479 8.7472,13.2879 8.9712,13.2879 L9.1952,13.2879 C9.6802,13.2879 9.9642,13.2249 10.0492,13.0999 C10.1322,12.9769 10.1752,12.5519 10.1752,11.8249 L10.1752,6.2919 C10.1752,4.2479 10.0442,3.0239 9.7822,2.6229 C9.5572,2.2789 9.1552,2.1079 8.5752,2.1079 C7.9952,2.1079 7.5182,2.2859 7.1432,2.6479 C6.7682,3.0079 6.5812,3.4629 6.5812,4.0129 L6.5812,12.6329 C6.6202,12.8609 6.7002,13.0089 6.8242,13.0739 C6.9472,13.1409 7.2572,13.1829 7.7512,13.2019 C7.9032,13.2019 7.9792,13.2599 7.9792,13.3729 C7.9792,13.4869 7.9132,13.5539 7.7792,13.5729 C7.6472,13.5919 7.1712,13.6009 6.3542,13.6009 C5.5362,13.6009 4.8602,13.6099 4.3292,13.6289 C3.2822,13.6659 2.2182,13.6869 1.1342,13.6869 C0.9072,13.6869 0.7922,13.6189 0.7922,13.4869 C0.7922,13.3339 1.0822,13.2599 1.6622,13.2599 C2.2412,13.2599 2.5792,13.1459 2.6742,12.9189 L2.7602,12.5189 L2.7602,5.9769 C2.7602,4.1389 2.7402,3.1799 2.7032,3.1029 C2.6462,2.8199 2.3892,2.6759 1.9332,2.6759 L1.2772,2.6759 L0.9642,2.6759 C0.6582,2.6759 0.5062,2.6159 0.5062,2.4909 C0.5062,2.3679 0.6202,2.2959 0.8482,2.2769 C2.9672,2.1819 4.6602,1.7359 5.9282,0.9379 C6.0792,0.8609 6.1832,0.8239 6.2402,0.8239 C6.3922,0.8239 6.4682,0.9749 6.4682,1.2789 L6.4682,2.9059 C7.4752,1.5919 8.7682,0.9379 10.3462,0.9379 C11.9812,0.9379 13.0452,1.5089 13.5412,2.6479 C13.7502,3.1239 13.8772,3.6559 13.9252,4.2449 C13.9722,4.8349 13.9972,6.0529 13.9972,7.8959 L13.9972,12.0319 C13.9972,12.6209 14.0442,12.9669 14.1402,13.0719 C14.2352,13.1779 14.5432,13.2299 15.0672,13.2299 C15.5892,13.2299 15.8502,13.3059 15.8502,13.4569" id="Fill-19" fill="#231F20" mask="url(#mask-6)"></path>
                        </g>
                    </g>
                </g>
            </g>
        </g>
    </g>
</svg>