<?xml version="1.0" encoding="UTF-8"?>
<svg width="137px" height="24px" viewBox="0 0 137 24" version="1.1" xmlns="http://www.w3.org/2000/svg" xmlns:xlink="http://www.w3.org/1999/xlink">
    <!-- Generator: Sketch 52.2 (67145) - http://www.bohemiancoding.com/sketch -->
    <title>Group 22</title>
    <desc>Created with Sketch.</desc>
    <defs>
        <polygon id="path-1" points="0.0002 0.259032074 13.6207131 0.259032074 13.6207131 19 0.0002 19"></polygon>
    </defs>
    <g id="Desktop-Ver2.0" stroke="none" stroke-width="1" fill="none" fill-rule="evenodd">
        <g id="01_Home_Landing" transform="translate(-562.000000, -5040.000000)">
            <g id="Group-17" transform="translate(231.000000, 4781.000000)">
                <g id="Group-11" transform="translate(0.000000, 220.000000)">
                    <g id="Group-22" transform="translate(331.000000, 39.000000)">
                        <path d="M88.0049,0 C88.1589,0.118 88.2989,0.265 88.4699,0.348 C89.3309,0.765 89.8979,1.343 89.8019,2.382 C89.7539,2.906 89.7899,3.438 89.7949,3.967 C89.8039,4.885 89.8069,4.937 90.7029,4.917 C91.2339,4.906 91.5529,5.11 91.9349,5.426 C92.4589,5.86 92.4319,6.467 92.2459,6.852 C92.0569,7.242 91.7039,7.762 91.0589,7.764 C90.6579,7.766 90.0989,7.693 89.8989,7.911 C89.6869,8.143 89.7979,8.678 89.7969,9.081 C89.7899,10.726 89.7899,12.371 89.7949,14.015 C89.7979,15.154 89.8029,15.155 90.8799,15.162 C91.2369,15.165 91.5959,15.152 91.9529,15.165 C92.5239,15.185 93.2639,15.743 93.3709,16.219 C93.4799,16.699 92.8289,17.793 92.3129,17.983 C90.8479,18.52 89.3089,18.438 87.8209,18.286 C86.6549,18.166 85.5169,16.319 85.5049,14.897 C85.4879,12.783 85.4869,10.668 85.5099,8.553 C85.5159,8.011 85.4979,7.758 84.7769,7.702 C84.1989,7.657 83.6649,7.129 83.7049,6.348 C83.7389,5.68 84.1079,5.122 84.9559,4.97 C85.4489,4.881 85.5199,4.721 85.5059,4.319 C85.4859,3.733 85.5309,3.143 85.4949,2.558 C85.4249,1.428 85.8649,0.669 87.0029,0.341 C87.1219,0.307 87.1949,0.118 87.2899,0 L88.0049,0 Z" id="Fill-1" fill="#231F20"></path>
                        <g id="Group-5" transform="translate(0.000000, 4.308700)">
                            <mask id="mask-2" fill="white">
                                <use xlink:href="#path-1"></use>
                            </mask>
                            <g id="Clip-4"></g>
                            <path d="M13.5942,7.8937 C13.5942,9.3037 13.5352,10.7167 13.6112,12.1227 C13.6852,13.5087 13.3182,14.8087 12.8332,16.0447 C12.5572,16.7477 11.9342,17.4677 11.2712,17.8437 C9.6382,18.7697 7.0322,19.4047 5.2452,18.6977 C4.8342,18.5357 4.2682,18.7537 3.8602,18.5887 C2.6882,18.1147 1.5752,17.4697 0.8652,16.4117 C0.6142,16.0377 0.7652,15.4067 0.7122,14.8957 C0.6612,14.3907 1.1222,14.2337 1.3572,13.9237 C1.6682,13.5157 2.1202,13.7497 2.5042,13.6697 C3.0002,13.5667 3.2622,13.8707 3.5492,14.1717 C3.8762,14.5137 4.2182,14.8417 4.5592,15.1707 C5.3262,15.9117 6.1602,15.8937 7.4012,15.8417 C8.9042,15.7787 9.2162,14.9887 9.3152,13.8017 C9.3372,13.5487 9.5842,13.3207 9.6452,13.0627 C9.6942,12.8507 9.6212,12.6107 9.6012,12.3837 C9.4332,12.4707 9.2212,12.5197 9.1022,12.6497 C8.3992,13.4227 7.5382,13.8137 6.4902,13.6647 C5.7042,13.5527 4.8282,14.0377 4.1282,13.3367 C2.4182,13.1917 1.7022,12.0247 0.9882,10.6597 C0.4272,9.5887 0.6082,8.3707 0.0002,7.3577 C0.6752,6.5117 0.1272,5.4607 0.4822,4.5587 C0.8242,3.6887 1.1492,2.8237 1.7772,2.0857 C2.3692,1.3897 4.2882,0.2627 5.1762,0.2867 C6.0872,0.3107 6.9792,0.2297 7.9142,0.5607 C8.5352,0.7797 8.8522,1.1907 9.3042,1.5147 C9.6492,1.7627 9.8362,1.8147 10.0432,1.3087 C10.2502,0.8017 10.5812,0.3127 11.2912,0.2647 C12.5582,0.1797 13.5592,1.0577 13.5852,2.4297 C13.6212,4.2507 13.5942,6.0727 13.5942,7.8937 M4.3122,6.9507 C4.2062,7.9557 4.4062,8.8217 4.9732,9.6937 C5.4522,10.4307 6.2092,10.5277 6.8552,10.7997 C7.1822,10.9377 7.8282,10.5977 8.2002,10.3107 C8.6402,9.9717 9.0522,9.5057 9.2812,9.0067 C9.9802,7.4777 9.7112,5.9767 8.9472,4.5267 C8.6742,4.0107 8.3852,3.4427 7.7312,3.4717 C6.9542,3.5067 6.1412,3.1627 5.4052,3.8947 C4.5102,4.7857 4.1402,5.7627 4.3122,6.9507" id="Fill-3" fill="#008041" mask="url(#mask-2)"></path>
                        </g>
                        <path d="M131.1836,12.6944 C130.1716,12.6944 129.1586,12.6874 128.1466,12.6964 C127.2616,12.7054 127.3556,12.6814 127.6876,13.6434 C128.0066,14.5654 128.4856,15.0714 129.4706,15.3554 C130.6026,15.6814 131.4726,15.4724 132.2776,14.7174 C132.8566,14.1744 133.3566,13.5324 134.2256,13.3924 C134.5306,13.3434 134.9576,13.0434 135.0936,13.1504 C135.4496,13.4294 135.9306,13.4904 136.1586,14.0734 C136.5116,14.9754 136.1616,15.6204 135.7196,16.2384 C134.8166,17.4984 133.3516,18.0584 131.9556,18.2624 C130.5686,18.4664 129.1056,18.4324 127.6346,18.0354 C125.0796,17.3454 123.2086,14.7884 123.4126,12.4694 C123.4736,11.7704 123.4206,11.0614 123.4216,10.3564 C123.4246,7.8744 125.1236,5.6824 127.5626,4.9294 C129.2036,4.4234 130.8166,4.3874 132.4516,4.9324 C134.5806,5.6424 135.8066,7.1364 136.2816,9.2414 C136.4266,9.8804 137.0596,10.5314 136.3296,11.2624 C136.1626,11.4294 136.3346,11.9624 135.9546,12.1434 C135.5096,12.3554 135.0466,12.6374 134.5766,12.6694 C133.4506,12.7464 132.3146,12.6944 131.1836,12.6944 M129.9596,10.2264 C130.4916,10.2264 131.0226,10.2334 131.5536,10.2244 C132.5056,10.2094 132.5406,10.0614 132.1356,9.0964 C131.8326,8.3764 131.3586,7.9444 130.6516,7.6194 C130.1836,7.4054 129.8926,7.4124 129.4126,7.6204 C128.7376,7.9134 128.2606,8.3904 127.8506,8.9104 C127.6466,9.1694 127.7026,9.6794 127.7646,10.0554 C127.7806,10.1514 128.2686,10.2034 128.5436,10.2184 C129.0136,10.2454 129.4876,10.2264 129.9596,10.2264" id="Fill-6" fill="#231F20"></path>
                        <path d="M49.2346,12.6944 C48.1616,12.6944 47.0886,12.6884 46.0156,12.6974 C45.5276,12.7014 45.2986,13.0164 45.4336,13.4574 C45.9686,15.2114 47.7496,15.9134 49.5306,15.2224 C50.3086,14.9204 51.0016,14.5684 51.4836,13.9354 C52.1246,13.0944 52.9936,13.4924 53.7736,13.4174 C53.8426,13.4114 53.9246,13.6684 54.0216,13.7864 C54.7406,14.6664 54.3016,15.4644 53.8186,16.2334 C53.1696,17.2654 52.0146,17.6274 50.9696,17.9424 C48.7966,18.5994 46.6466,18.5984 44.5676,17.3464 C42.6526,16.1924 41.5536,14.6654 41.4996,12.4414 C41.4906,12.0894 41.5286,11.7334 41.4936,11.3844 C41.2396,8.8544 42.5306,7.0204 44.3606,5.5234 C44.9626,5.0304 45.8596,4.8384 46.6536,4.6324 C49.5446,3.8794 53.1876,5.6824 54.1816,8.5104 C54.5306,9.5044 54.4886,10.7124 54.3166,11.7734 C54.2136,12.4024 53.3206,12.6474 52.6316,12.6804 C51.5016,12.7334 50.3676,12.6944 49.2346,12.6944 M47.7546,10.2264 C48.5206,10.2264 49.2876,10.2464 50.0516,10.2074 C50.1886,10.2004 50.4096,9.9594 50.4266,9.8074 C50.5646,8.5954 48.6756,7.0494 47.5196,7.4084 C47.4176,7.4404 47.3126,7.4984 47.2366,7.5724 C46.7726,8.0184 46.2596,8.4314 45.8806,8.9404 C45.6466,9.2544 45.6206,9.7204 45.5026,10.1174 C45.8406,10.1534 46.1786,10.2064 46.5176,10.2214 C46.9286,10.2404 47.3416,10.2264 47.7546,10.2264" id="Fill-8" fill="#008041"></path>
                        <path d="M34.3462,12.6944 C33.3332,12.6944 32.3192,12.7264 31.3082,12.6814 C30.7602,12.6574 30.7492,12.9344 30.7632,13.3214 C30.7932,14.1194 31.9442,15.4054 32.8812,15.4934 C33.7842,15.5784 34.7272,15.6444 35.4962,14.9254 C35.9042,14.5434 36.4682,14.3124 36.8372,13.9044 C37.2462,13.4514 37.6982,13.3734 38.2462,13.3964 C39.3102,13.4404 39.8442,14.3754 39.3682,15.3294 C38.7582,16.5524 37.8062,17.3094 36.5112,17.8234 C34.4782,18.6294 32.4402,18.5204 30.4982,17.8404 C28.2462,17.0524 26.7302,14.7624 26.8262,12.5624 C26.8572,11.8584 26.8852,11.1484 26.8192,10.4494 C26.6822,8.9824 27.4072,7.8904 28.2482,6.7944 C28.9382,5.8954 29.9702,5.3704 31.4112,4.9054 C33.4702,4.2424 35.2802,4.6054 37.0922,5.6294 C38.7112,6.5444 39.4022,7.9804 39.7022,9.6834 C39.7522,9.9684 39.7172,10.2704 39.7082,10.5634 C39.6942,11.0124 39.8132,11.4604 39.3542,11.8374 C38.8162,12.2774 38.2872,12.6804 37.5632,12.6904 C36.4912,12.7054 35.4182,12.6944 34.3462,12.6944 M33.1382,10.2264 C33.7882,10.2264 34.4382,10.2334 35.0872,10.2244 C35.7672,10.2144 36.0212,9.8634 35.6732,9.2724 C35.3202,8.6734 35.0542,8.0224 34.2402,7.7254 C33.1802,7.3384 32.2772,7.3534 31.6692,8.1174 C31.4362,8.4094 31.2952,8.7754 31.1252,9.1144 C30.5762,10.2094 30.5792,10.2124 31.7212,10.2254 C32.1932,10.2304 32.6662,10.2264 33.1382,10.2264" id="Fill-10" fill="#008041"></path>
                        <path d="M56.5234,11.6672 C56.5234,10.1122 56.5244,8.9382 56.5234,7.7652 C56.5224,7.1442 56.7624,6.5392 56.8154,5.9682 C56.9144,4.9132 57.7364,4.8272 58.3334,4.6312 C59.0004,4.4122 59.7374,4.6182 60.1134,5.4192 C60.3204,5.8602 60.5624,5.9802 61.1014,5.5812 C63.2374,4.0052 66.2184,4.2652 67.8924,6.1022 C68.6284,6.9102 69.0034,7.9132 69.0284,8.9752 C69.0814,11.3222 69.0304,13.6702 69.0524,16.0182 C69.0594,16.8132 68.7384,17.4252 68.1804,17.9542 C67.6074,18.4972 66.6114,18.4852 65.9874,17.9792 C65.3584,17.4682 65.0434,16.9042 65.0854,16.0432 C65.1674,14.3452 65.1084,12.6402 65.1094,10.9382 C65.1104,10.3182 65.0794,9.7322 64.7814,9.1332 C64.5294,8.6292 64.6214,7.8562 63.8804,7.7822 C62.8814,7.6822 61.8324,7.6262 61.3194,8.8332 C61.0564,9.4522 60.7634,10.0182 60.7964,10.7412 C60.8624,12.2062 60.8194,13.6752 60.8154,15.1422 C60.8134,15.7602 60.7544,16.3332 60.4954,16.9482 C59.9694,18.1972 59.1244,18.6252 57.8814,18.1082 C57.2384,17.8412 57.0314,17.4882 56.8224,16.7912 C56.2714,14.9502 56.7354,13.1102 56.5234,11.6672" id="Fill-12" fill="#008041"></path>
                        <path d="M76.7126,18.3364 C75.9526,18.1834 75.0666,18.3504 74.1166,18.0654 C72.9676,17.7204 72.1536,17.1044 71.4866,16.2784 C71.1006,15.7994 70.8206,15.0384 70.8926,14.4524 C70.9716,13.8094 71.3556,13.1644 72.1956,12.8854 C72.7696,12.6954 73.1566,12.6044 73.5556,13.0844 C73.9566,13.5674 74.3726,14.0384 74.7666,14.5274 C75.3586,15.2614 77.1096,15.7484 77.9646,15.3424 C78.3936,15.1394 79.1126,15.0454 79.0156,14.4294 C78.9566,14.0514 78.5166,13.5904 78.1336,13.4304 C77.3236,13.0934 76.4526,12.8564 75.5826,12.7104 C74.1276,12.4674 72.8966,11.8964 71.9226,10.7804 C71.0196,9.7454 71.0606,7.9444 71.6726,6.6934 C72.4036,5.2014 73.9556,5.2954 75.0736,4.5844 C77.0886,4.5154 79.0916,4.4804 80.8826,5.6374 C81.6896,6.1584 82.2466,6.8064 82.2816,7.8004 C82.3216,8.9254 81.7716,9.4544 80.6466,9.5374 C79.8606,9.5954 79.3146,9.3284 78.8136,8.7654 C78.4006,8.3034 78.0076,7.7834 77.3306,7.6314 C77.1746,7.5964 77.0456,7.4434 76.8896,7.4124 C76.2896,7.2914 75.2236,7.7134 75.1266,8.0874 C74.9876,8.6224 75.2826,9.0344 76.2296,9.3534 C76.9646,9.6004 77.7646,9.6584 78.5086,9.8834 C79.7846,10.2694 81.0956,10.5984 82.0726,11.6034 C83.0926,12.6524 83.1996,13.9004 82.6876,15.3244 C81.8996,17.5114 80.2236,18.2164 78.1006,18.3334 C77.6856,18.3564 77.2676,18.3364 76.7126,18.3364" id="Fill-14" fill="#231F20"></path>
                        <path d="M108.7542,11.2386 C108.7542,9.5346 108.7422,7.8296 108.7592,6.1256 C108.7682,5.1256 109.3532,4.6506 110.3962,4.5686 C111.3362,4.4956 111.9942,4.8066 112.3172,5.6676 C112.4392,5.9946 112.4992,6.0116 112.7272,5.7836 C114.0992,4.4126 115.8662,4.4806 117.5862,4.6076 C119.2192,4.7276 120.8992,6.6586 120.9112,8.2866 C120.9332,11.1076 120.9242,13.9286 120.9142,16.7496 C120.9102,17.7656 120.3242,18.2096 119.3252,18.3646 C118.2232,18.5346 117.7032,17.8386 117.1232,17.2076 C116.9642,17.0346 116.9892,16.6696 116.9882,16.3916 C116.9782,14.3346 116.9852,12.2776 116.9802,10.2206 C116.9792,9.7706 117.0342,9.3406 116.6462,8.9366 C116.3602,8.6406 116.3682,7.9446 116.0702,7.8136 C115.6222,7.6176 114.9702,7.6246 114.5012,7.7976 C114.0692,7.9566 113.6342,8.3886 113.4332,8.8086 C113.0572,9.5956 112.6612,10.3956 112.6802,11.3246 C112.7132,12.9696 112.6132,14.6206 112.7172,16.2596 C112.7822,17.2766 112.1342,17.8186 111.4902,18.2006 C111.0142,18.4816 110.1592,18.4746 109.6302,18.2446 C109.0222,17.9806 108.7462,17.2626 108.7502,16.5276 C108.7622,14.7646 108.7542,13.0016 108.7542,11.2386" id="Fill-16" fill="#231F20"></path>
                        <path d="M102.3147,17.6311 C101.9747,17.5901 101.6347,17.5481 101.2947,17.5071 C101.4277,17.2231 101.5647,16.9421 101.6927,16.6561 C101.7917,16.4331 102.3987,16.7601 102.1707,16.2971 C102.0447,16.0411 102.0507,15.9871 102.2097,15.7761 C102.7447,15.0651 103.2387,14.3231 103.7317,13.5821 C103.8827,13.3571 104.1087,13.0821 104.0817,12.8571 C103.9507,11.7901 104.4967,10.6521 103.7457,9.6531 C104.0237,9.1581 104.0217,8.5811 103.6477,8.2391 C103.1717,7.8021 102.5377,7.5161 101.9417,7.2271 C101.2557,6.8941 99.7137,7.0201 98.9367,7.3811 C97.9187,7.8541 97.0027,8.3931 96.5717,9.5281 C96.3407,10.1371 95.7617,10.5501 95.8377,11.3611 C95.9207,12.2361 96.0577,12.9921 96.6577,13.6921 C96.8977,13.9721 97.4977,14.3191 97.0547,14.9021 C97.0397,14.9231 97.1997,15.1511 97.2767,15.1501 C97.8017,15.1431 98.2637,15.2511 98.7497,15.4921 C99.3297,15.7791 99.8917,16.3681 99.8107,16.8811 C99.7357,17.3591 99.0027,17.9471 98.4397,17.9841 C97.3447,18.0551 96.5047,17.4791 95.6817,16.8961 C95.3477,16.6591 95.1067,16.2991 94.7877,16.0371 C93.3237,14.8411 92.9247,13.1831 93.0667,11.4781 C93.1587,10.3761 93.7487,9.3081 94.1637,8.2431 C94.2057,8.1341 94.5817,8.1521 94.9937,8.2911 C95.1227,8.3661 95.0457,8.2381 94.9687,8.1101 C94.9137,8.1651 94.8017,8.2351 94.8117,8.2721 C94.8597,8.4481 94.9417,8.6151 95.0117,8.7851 C95.0607,8.6961 95.1107,8.6071 94.9937,8.2911 C94.9217,7.9241 95.1557,7.7301 95.1417,7.5541 C95.0377,6.2201 96.3497,6.2501 97.0047,5.6601 C97.0977,5.5771 97.4217,5.7421 97.6377,5.7931 C97.4527,5.8751 97.2317,5.9221 97.0917,6.0531 C96.9887,6.1501 96.9927,6.3561 96.9487,6.5141 C97.0727,6.5131 97.2187,6.5521 97.3167,6.5021 C97.8567,6.2271 98.4187,5.9751 98.9067,5.6251 C99.2497,5.3781 98.9307,5.3351 98.7087,5.2781 C98.6147,5.2541 98.5517,5.1091 98.4747,5.0191 C98.8897,4.8741 99.2957,4.6551 99.7217,4.6021 C100.3077,4.5301 100.9097,4.5721 101.5037,4.5921 C101.6547,4.5971 101.8027,4.7051 101.9517,4.7661 C101.7967,4.8231 101.6427,4.8811 101.4877,4.9361 C101.2947,5.0051 101.1017,5.0711 100.9087,5.1381 C101.0777,5.3041 101.2217,5.5661 101.4187,5.6141 C101.7557,5.6941 102.2447,5.5001 102.4547,5.6731 C102.8097,5.9671 103.1037,5.6421 103.2377,5.6901 C103.9027,5.9291 104.7467,5.8651 105.1907,6.5471 C105.7607,7.4221 106.3527,8.2951 106.8067,9.2291 C107.0167,9.6601 107.0277,10.2541 106.9357,10.7401 C106.8447,11.2251 107.7497,11.4881 107.0997,12.1151 C106.8227,12.3821 107.0767,13.1251 106.9437,13.6131 C106.8027,14.1281 106.4507,14.5821 106.2577,15.0881 C105.7477,16.4211 104.6487,17.2041 103.5397,17.9741 C103.2777,18.1561 102.9387,18.2861 102.6217,18.3181 C102.2957,18.3501 101.9537,18.2321 101.6187,18.1791 C101.8507,17.9971 102.0827,17.8141 102.3147,17.6311 C102.5857,17.5781 102.9997,17.8061 103.1347,17.1161 C103.1697,17.0101 103.0997,17.0651 103.0307,17.1211 C103.0837,17.1731 103.1367,17.2261 103.1897,17.2781 C103.2447,17.2091 103.3067,17.1431 103.3487,17.0661 C103.3557,17.0531 103.2797,16.9951 103.1347,17.1161 C102.7587,17.3311 102.3457,17.1031 102.3147,17.6311 M96.5617,14.6621 C96.5057,14.5941 96.4487,14.5261 96.3927,14.4571 C96.3397,14.5101 96.2867,14.5621 96.2327,14.6151 C96.3037,14.6691 96.3707,14.7301 96.4487,14.7711 C96.4617,14.7781 96.5207,14.7031 96.0737,14.4571 L96.2327,14.4571 C96.1997,14.3661 96.1817,14.2641 96.1257,14.1901 C96.1077,14.1681 95.9837,14.2271 95.9087,14.2481 C95.9637,14.3181 96.0187,14.3881 96.5617,14.6621 M98.0617,7.0651 C98.0027,6.9161 97.9927,6.8341 97.9617,6.8261 C97.8877,6.8051 97.7677,6.7851 97.7277,6.8251 C97.5747,6.9791 97.4257,7.1451 97.3167,7.3301 C97.2747,7.4001 97.3447,7.5341 97.3647,7.6381 C97.4847,7.5981 97.6377,7.5911 97.7207,7.5121 C97.8677,7.3701 97.9737,7.1851 98.0617,7.0651 M95.5697,7.8831 C95.6107,7.9571 95.6537,8.0341 95.6967,8.1101 C95.7367,8.0711 95.8147,8.0231 95.8087,7.9941 C95.7897,7.9111 95.7367,7.8361 95.6967,7.7571 C95.6567,7.7971 95.6167,7.8361 95.5697,7.8831" id="Fill-18" fill="#231F20"></path>
                        <path d="M16.0986,11.2811 C16.0986,10.1091 16.0966,8.9381 16.0986,7.7661 C16.1006,7.1481 16.3256,6.5451 16.3886,5.9721 C16.5016,4.9341 17.2976,4.8541 17.8986,4.6231 C18.5366,4.3771 19.3006,4.6571 19.6396,5.2561 C19.8886,5.6961 20.0086,5.7341 20.3726,5.4861 C22.0586,4.3381 23.7026,4.2461 25.2086,5.3121 C25.5986,5.5871 25.8466,6.0881 26.0836,6.5251 C26.1506,6.6491 25.9666,6.9221 25.8716,7.1131 C25.3336,8.1871 24.5296,8.6801 23.6746,8.3321 C21.5366,7.4591 20.3876,8.8751 20.3906,10.6021 C20.3936,12.1251 20.3846,13.6491 20.3946,15.1721 C20.3996,15.7961 20.2956,16.3671 20.0596,16.9691 C19.5676,18.2291 18.7246,18.5491 17.4376,18.1121 C16.2226,17.7001 16.2226,16.6921 16.1396,15.8471 C15.9926,14.3371 16.0986,12.8041 16.0986,11.2811" id="Fill-20" fill="#008041"></path>
                    </g>
                </g>
            </g>
        </g>
    </g>
</svg>