<?xml version="1.0" encoding="UTF-8"?>
<svg width="168px" height="9px" viewBox="0 0 168 9" version="1.1" xmlns="http://www.w3.org/2000/svg" xmlns:xlink="http://www.w3.org/1999/xlink">
    <!-- Generator: Sketch 52.2 (67145) - http://www.bohemiancoding.com/sketch -->
    <title>Group 32</title>
    <desc>Created with Sketch.</desc>
    <defs>
        <polygon id="path-1" points="0 0.9979 19.4868174 0.9979 19.4868174 8.99702815 0 8.99702815"></polygon>
        <polygon id="path-3" points="0.736776049 0.936 25.3718533 0.936 25.3718533 8.9865 0.736776049 8.9865"></polygon>
        <polygon id="path-5" points="0.304899579 0.984636385 21.312 0.984636385 21.312 5.10126442 0.304899579 5.10126442"></polygon>
    </defs>
    <g id="Desktop-Ver2.0" stroke="none" stroke-width="1" fill="none" fill-rule="evenodd">
        <g id="01_Home_Landing" transform="translate(-877.000000, -5048.000000)">
            <g id="Group-17" transform="translate(231.000000, 4781.000000)">
                <g id="Group-11" transform="translate(0.000000, 220.000000)">
                    <g id="Group-32" transform="translate(646.000000, 46.000000)">
                        <g id="Group-3" transform="translate(0.000000, 0.063960)">
                            <mask id="mask-2" fill="white">
                                <use xlink:href="#path-1"></use>
                            </mask>
                            <g id="Clip-2"></g>
                            <path d="M0.4598,8.9689 C0.0388,8.9689 -0.0002,8.9689 -0.0002,8.6199 L-0.0002,8.0299 C-0.0002,7.6739 0.0938,7.5809 0.5318,7.5809 L16.4628,7.5809 C17.0548,7.6319 17.5948,7.3039 17.7058,6.8309 C17.8678,6.3409 17.5058,5.8359 16.9018,5.7049 C16.8678,5.6979 16.8338,5.6909 16.7948,5.6879 C16.6418,5.6779 16.4838,5.6779 16.3308,5.6879 L3.0608,5.6879 C1.9968,5.7359 0.9878,5.3079 0.4258,4.5719 C-0.4052,3.4599 0.0338,2.0059 1.4048,1.3329 C1.7878,1.1459 2.2138,1.0319 2.6608,0.9979 L3.5248,0.9979 L18.9618,0.9979 C19.4558,0.9979 19.4768,0.9979 19.4768,1.4219 L19.4768,2.0229 C19.4768,2.3409 19.4138,2.3959 19.0178,2.3959 L3.0908,2.3959 C2.6308,2.3549 2.1758,2.5239 1.9198,2.8379 C1.6948,3.1289 1.6948,3.4979 1.9198,3.7879 C2.1118,4.0849 2.4908,4.2719 2.9028,4.2719 L16.4458,4.2719 C17.9318,4.2199 19.2308,5.0829 19.4518,6.2779 C19.6988,7.5669 18.6128,8.7719 17.0248,8.9719 C16.9618,8.9789 16.8928,8.9859 16.8248,8.9929 C15.9388,9.0099 3.1718,8.9689 0.4598,8.9689" id="Fill-1" fill="#040505" mask="url(#mask-2)"></path>
                        </g>
                        <path d="M114.1941,5.00916 C114.6111,5.24416 114.9991,5.51316 115.3521,5.81016 C115.8291,6.35916 115.8631,7.08516 115.4411,7.66216 C115.0241,8.51116 113.9941,9.06416 112.8661,9.04316 L98.8211,9.04316 C98.5531,9.04316 98.4211,8.94316 98.4291,8.71116 C98.4381,8.48016 98.4291,8.24516 98.4291,8.01016 C98.4291,7.77616 98.5101,7.63416 98.8931,7.63416 L112.7421,7.63416 C113.1641,7.64816 113.5601,7.47516 113.7811,7.18516 C114.1001,6.83616 114.0111,6.34616 113.5811,6.08716 C113.4701,6.02116 113.3471,5.97616 113.2151,5.95216 C112.6531,5.82416 112.0701,5.75816 111.4821,5.75116 L98.9191,5.75116 C98.4461,5.75116 98.3821,5.70016 98.3821,5.32716 L98.3821,4.70916 C98.3821,4.40116 98.4721,4.33516 98.8631,4.33516 L108.1101,4.33516 L112.0401,4.33516 C112.4491,4.31516 112.8531,4.24916 113.2411,4.14216 C113.6151,4.06616 113.8831,3.80416 113.9171,3.49316 C113.9771,3.14716 113.7681,2.80916 113.3941,2.64316 C113.1721,2.54316 112.9211,2.48816 112.6661,2.48416 L98.9321,2.48416 C98.5611,2.48416 98.3781,2.38416 98.4161,2.07016 L98.4161,1.43816 C98.4161,1.12016 98.4971,1.05416 98.9021,1.05416 L112.5121,1.05416 C112.8361,1.05116 113.1551,1.07516 113.4751,1.12716 C114.9521,1.39616 115.8801,2.58816 115.5441,3.78616 C115.5181,3.88616 115.4801,3.98316 115.4371,4.07616 C115.1731,4.50116 114.7351,4.83316 114.1941,5.00916" id="Fill-4" fill="#040505"></path>
                        <path d="M82.5239,2.46026 L75.4099,2.46026 C75.0309,2.46026 74.9369,2.38726 74.9369,2.08326 L74.9369,1.33426 C74.9369,1.14126 75.0689,1.05826 75.2949,1.04026 L88.5349,1.04026 C89.4849,0.99226 90.4259,1.19926 91.2129,1.63126 C92.2139,2.11826 92.5329,3.16826 91.9329,3.98026 C91.7499,4.22826 91.4859,4.43626 91.1749,4.58126 C90.4849,4.97426 89.6589,5.18226 88.8159,5.17126 L75.3679,5.17126 C75.0309,5.17126 74.9369,5.09526 74.9369,4.83626 L74.9369,4.05626 C74.9369,3.79326 75.0609,3.77226 75.2869,3.76526 L89.4629,3.76526 C89.8419,3.80426 90.2079,3.63826 90.3739,3.35826 C90.5489,3.04026 90.3699,2.66726 89.9739,2.52626 C89.8719,2.48826 89.7569,2.47026 89.6469,2.47426 L82.4729,2.47426 L82.5239,2.46026 Z" id="Fill-6" fill="#040505"></path>
                        <g id="Group-10" transform="translate(118.000000, 0.063960)">
                            <mask id="mask-4" fill="white">
                                <use xlink:href="#path-3"></use>
                            </mask>
                            <g id="Clip-9"></g>
                            <path d="M25.327,8.8515 C25.523,8.9935 25.02,8.9825 24.906,8.9865 L22.926,8.9865 C22.734,8.9795 22.551,8.9245 22.402,8.8275 C20.448,7.4045 18.473,5.9645 16.48,4.5065 C15.68,3.9155 14.879,3.3255 14.066,2.7345 C13.445,2.2335 12.44,2.2405 11.823,2.7455 C11.806,2.7585 11.789,2.7725 11.776,2.7865 C10.669,3.6125 9.537,4.4165 8.421,5.2285 L5.198,7.5875 C4.636,7.9945 4.087,8.4055 3.517,8.8035 C3.38,8.8925 3.206,8.9445 3.031,8.9515 L1.022,8.9515 C0.928,8.9515 0.784,8.9515 0.745,8.8515 C0.707,8.7515 0.809,8.6855 0.881,8.6335 L4.228,6.1855 C5.756,5.0765 7.267,3.9605 8.804,2.8555 C9.502,2.3165 10.256,1.8225 11.052,1.3805 C12.466,0.6865 14.271,0.8145 15.51,1.6985 C16.638,2.4725 17.694,3.2875 18.813,4.0575 C20.321,5.1425 21.819,6.2335 23.322,7.3315 L25.11,8.6405 C25.114,8.6515 25.289,8.8275 25.327,8.8515" id="Fill-8" fill="#040505" mask="url(#mask-4)"></path>
                        </g>
                        <path d="M60.0326,4.93316 C59.7936,4.74016 59.5596,4.54316 59.3046,4.34216 C58.6356,3.86616 57.9676,3.39316 57.2826,2.89216 C56.6776,2.36016 55.6556,2.32516 55.0006,2.81616 C54.9536,2.85016 54.9066,2.88816 54.8686,2.92616 L49.5386,6.80816 C48.6606,7.44716 47.7846,8.09016 46.9026,8.73916 C46.6476,8.95016 46.2936,9.06716 45.9276,9.05716 L44.1906,9.05716 C44.0976,9.05716 43.9356,9.05716 43.9016,8.95016 C43.8676,8.84316 43.9656,8.76716 44.0466,8.71516 C44.8976,8.08316 45.7616,7.46516 46.6216,6.84316 C47.7506,6.02416 48.8696,5.19516 49.9976,4.38416 C51.2326,3.48616 52.4586,2.57716 53.7236,1.71716 C55.1286,0.82616 57.1036,0.82616 58.5086,1.71716 C59.6446,2.47416 60.6926,3.29216 61.8166,4.07616 L66.3246,7.34716 L68.2326,8.73916 C68.2956,8.79116 68.3256,8.86316 68.3126,8.93216 C68.2666,8.99516 68.1896,9.03616 68.1006,9.04316 L66.0266,9.04316 C65.8396,9.02616 65.6606,8.96416 65.5156,8.86016 L60.3646,5.16116 C60.2496,5.08216 60.1266,5.00916 60.0026,4.94316 L60.0326,4.93316 Z" id="Fill-11" fill="#040505"></path>
                        <g id="Group-15" transform="translate(146.000000, 0.063960)">
                            <mask id="mask-6" fill="white">
                                <use xlink:href="#path-5"></use>
                            </mask>
                            <g id="Clip-14"></g>
                            <path d="M10.7036,5.1006 C8.5196,5.1006 6.3736,5.0666 4.2156,5.1006 C2.3716,5.1316 0.7756,4.0746 0.4396,2.6036 C0.3586,2.1576 0.3156,1.7086 0.3076,1.2566 C0.2856,1.1286 0.4006,1.0076 0.5586,0.9906 C0.5796,0.9876 0.6006,0.9876 0.6176,0.9906 L1.8606,0.9906 C2.0786,0.9906 2.1506,1.1146 2.1676,1.2906 C2.1546,1.6576 2.1936,2.0236 2.2786,2.3826 C2.3936,2.9666 2.9086,3.4496 3.6026,3.6296 C3.7176,3.6536 3.8366,3.6636 3.9596,3.6636 L17.5706,3.6636 C18.4686,3.6226 19.2056,3.0766 19.3286,2.3546 C19.4016,2.0096 19.4316,1.6606 19.4226,1.3116 C19.4226,1.0766 19.5376,0.9766 19.8316,0.9876 C20.1206,0.9976 20.5596,0.9876 20.9426,0.9876 C21.1046,0.9666 21.2576,1.0596 21.2826,1.1906 C21.2876,1.2046 21.2876,1.2146 21.2876,1.2286 C21.3936,2.0856 21.1596,2.9456 20.6186,3.6846 C20.0146,4.5516 18.8856,5.0936 17.6596,5.1006 L10.7036,5.1006 Z" id="Fill-13" fill="#040505" mask="url(#mask-6)"></path>
                        </g>
                        <path d="M33.5861,2.46026 L24.3051,2.46026 C23.8921,2.46026 23.8451,2.42526 23.8451,2.08726 L23.8451,1.38626 C23.8451,1.10326 23.9351,1.03726 24.2841,1.03726 L42.8451,1.03726 C43.2671,1.03726 43.3391,1.09626 43.3391,1.43826 L43.3391,2.06326 C43.3391,2.41826 43.2801,2.45626 42.8371,2.45626 L33.5861,2.45626 L33.5861,2.46026 Z" id="Fill-16" fill="#040505"></path>
                        <path d="M74.486,5.08176 L74.486,8.70476 C74.486,9.00476 74.405,9.06376 74.035,9.06376 L73.111,9.06376 C72.864,9.06376 72.732,8.98076 72.732,8.77376 L72.732,1.34476 C72.732,1.13776 72.843,1.03076 73.094,1.03676 L74.082,1.03676 C74.358,1.03676 74.482,1.14476 74.482,1.36876 L74.486,5.08176 Z" id="Fill-18" fill="#040505"></path>
                        <path d="M97.9142,5.05756 L97.9142,8.70456 C97.9142,9.01256 97.8502,9.06356 97.4752,9.06356 L96.5812,9.06356 C96.2962,9.06356 96.1812,8.96356 96.1812,8.73956 L96.1812,5.19956 L96.1812,1.48656 C96.1812,1.09556 96.2452,0.98556 96.7862,1.01356 L97.5142,1.01356 C97.7482,1.01356 97.9052,1.12056 97.9052,1.34456 L97.9142,5.05756 Z" id="Fill-20" fill="#040505"></path>
                        <path d="M92.2179,8.91196 C92.3709,9.00196 92.2179,9.04696 91.8559,9.05396 L89.2889,9.05396 C89.0289,9.02896 88.7779,8.95696 88.5609,8.83896 C86.3769,7.84796 84.2609,6.84296 82.1029,5.85196 C81.9369,5.77596 81.8769,5.70296 81.9919,5.54496 L84.8149,5.54496 C85.0659,5.58196 85.2999,5.66496 85.5039,5.78596 C87.7009,6.79096 92.1029,8.84596 92.2179,8.91196" id="Fill-22" fill="#040505"></path>
                        <path d="M130.9254,6.34236 L127.4344,6.34236 C127.0344,6.34236 126.9744,6.29436 126.9704,5.97636 C126.9614,5.65836 126.9704,5.49236 126.9704,5.25136 C126.9704,5.00936 127.0724,4.91636 127.3624,4.91636 L134.5654,4.91636 C134.8724,4.91636 134.9784,5.00536 134.9784,5.25736 L134.9784,6.03136 C134.9784,6.26336 134.8554,6.36336 134.5784,6.36336 L130.9254,6.34236 Z" id="Fill-24" fill="#040505"></path>
                        <path d="M55.9977,6.34236 L52.5067,6.34236 C52.1067,6.34236 52.0467,6.29436 52.0427,5.97636 C52.0337,5.65836 52.0427,5.49236 52.0427,5.25136 C52.0427,5.00936 52.1447,4.91636 52.4337,4.91636 L59.6377,4.91636 C59.9437,4.91636 60.0507,5.00536 60.0507,5.25736 L60.0507,6.03136 C60.0507,6.26336 59.9267,6.36336 59.6507,6.36336 L55.9977,6.34236 Z" id="Fill-26" fill="#040505"></path>
                        <path d="M34.0203,5.95896 L34.0203,8.72196 C34.0203,8.99796 33.9563,9.05396 33.6203,9.05696 L32.6583,9.05696 C32.4113,9.05696 32.2873,8.96696 32.2873,8.76696 L32.2873,3.14396 C32.2873,2.94396 32.3903,2.84396 32.6493,2.84396 L33.6033,2.84396 C33.9223,2.84396 34.0163,2.90196 34.0163,3.17496 C34.0283,4.10796 34.0203,5.03296 34.0203,5.95896" id="Fill-28" fill="#040505"></path>
                        <path d="M157.7211,7.30946 L157.7211,8.73546 C157.7211,8.97046 157.5981,9.06046 157.3211,9.05346 C157.0441,9.04646 156.5931,9.05346 156.2351,9.05346 C155.8781,9.05346 155.8561,8.96046 155.8561,8.73946 L155.8561,5.85846 C155.8561,5.62746 155.9881,5.52746 156.2651,5.53446 L157.2831,5.53446 C157.6401,5.53446 157.7121,5.59246 157.7121,5.87646 C157.7301,6.34246 157.7211,6.83246 157.7211,7.30946" id="Fill-30" fill="#040505"></path>
                    </g>
                </g>
            </g>
        </g>
    </g>
</svg>